<svg xmlns="http://www.w3.org/2000/svg" viewBox="0 0 1080 1080" width="1080" height="1080">
  <style>:root{--gold:#d8c48a}.g{fill:none;stroke:var(--gold);vector-effect:non-scaling-stroke;stroke-linecap:round;stroke-linejoin:round}</style>
  <g id="nodes" transform="translate(540,540)">
  <circle cx="0.000000" cy="0.000000" r="6" fill="#d8c48a"/>
  <circle cx="0.000000" cy="-420.000000" r="6" fill="#d8c48a"/>
  <circle cx="363.730670" cy="-210.000000" r="6" fill="#d8c48a"/>
  <circle cx="363.730670" cy="210.000000" r="6" fill="#d8c48a"/>
  <circle cx="0.000000" cy="420.000000" r="6" fill="#d8c48a"/>
  <circle cx="-363.730670" cy="210.000000" r="6" fill="#d8c48a"/>
  <circle cx="-363.730670" cy="-210.000000" r="6" fill="#d8c48a"/>
  <circle cx="0.000000" cy="-242.487113" r="6" fill="#d8c48a"/>
  <circle cx="210.000000" cy="-121.243557" r="6" fill="#d8c48a"/>
  <circle cx="210.000000" cy="121.243557" r="6" fill="#d8c48a"/>
  <circle cx="0.000000" cy="242.487113" r="6" fill="#d8c48a"/>
  <circle cx="-210.000000" cy="121.243557" r="6" fill="#d8c48a"/>
  <circle cx="-210.000000" cy="-121.243557" r="6" fill="#d8c48a"/>
</g>
  <g transform="translate(540,540)">
    <circle class="g" stroke-width="2.6" r="420.0"/>
    <circle class="g" stroke-width="2.2" r="242.4871130596428"/>
    <circle class="g" stroke-width="2.0" r="121.2435565298214"/>
    <line class="g" stroke-width="2" x1="0.000000" y1="0.000000" x2="0.000000" y2="-420.000000"/>
    <line class="g" stroke-width="2" x1="0.000000" y1="0.000000" x2="363.730670" y2="-210.000000"/>
    <line class="g" stroke-width="2" x1="0.000000" y1="0.000000" x2="363.730670" y2="210.000000"/>
    <line class="g" stroke-width="2" x1="0.000000" y1="0.000000" x2="0.000000" y2="420.000000"/>
    <line class="g" stroke-width="2" x1="0.000000" y1="0.000000" x2="-363.730670" y2="210.000000"/>
    <line class="g" stroke-width="2" x1="0.000000" y1="0.000000" x2="-363.730670" y2="-210.000000"/>
    <line class="g" stroke-width="2" x1="0.000000" y1="0.000000" x2="0.000000" y2="-242.487113"/>
    <line class="g" stroke-width="2" x1="0.000000" y1="0.000000" x2="210.000000" y2="-121.243557"/>
    <line class="g" stroke-width="2" x1="0.000000" y1="0.000000" x2="210.000000" y2="121.243557"/>
    <line class="g" stroke-width="2" x1="0.000000" y1="0.000000" x2="0.000000" y2="242.487113"/>
    <line class="g" stroke-width="2" x1="0.000000" y1="0.000000" x2="-210.000000" y2="121.243557"/>
    <line class="g" stroke-width="2" x1="0.000000" y1="0.000000" x2="-210.000000" y2="-121.243557"/>
    <line class="g" stroke-width="2" x1="0.000000" y1="-420.000000" x2="363.730670" y2="-210.000000"/>
    <line class="g" stroke-width="2" x1="0.000000" y1="-420.000000" x2="363.730670" y2="210.000000"/>
    <line class="g" stroke-width="2" x1="0.000000" y1="-420.000000" x2="0.000000" y2="420.000000"/>
    <line class="g" stroke-width="2" x1="0.000000" y1="-420.000000" x2="-363.730670" y2="210.000000"/>
    <line class="g" stroke-width="2" x1="0.000000" y1="-420.000000" x2="-363.730670" y2="-210.000000"/>
    <line class="g" stroke-width="2" x1="0.000000" y1="-420.000000" x2="0.000000" y2="-242.487113"/>
    <line class="g" stroke-width="2" x1="0.000000" y1="-420.000000" x2="210.000000" y2="-121.243557"/>
    <line class="g" stroke-width="2" x1="0.000000" y1="-420.000000" x2="210.000000" y2="121.243557"/>
    <line class="g" stroke-width="2" x1="0.000000" y1="-420.000000" x2="0.000000" y2="242.487113"/>
    <line class="g" stroke-width="2" x1="0.000000" y1="-420.000000" x2="-210.000000" y2="121.243557"/>
    <line class="g" stroke-width="2" x1="0.000000" y1="-420.000000" x2="-210.000000" y2="-121.243557"/>
    <line class="g" stroke-width="2" x1="363.730670" y1="-210.000000" x2="363.730670" y2="210.000000"/>
    <line class="g" stroke-width="2" x1="363.730670" y1="-210.000000" x2="0.000000" y2="420.000000"/>
    <line class="g" stroke-width="2" x1="363.730670" y1="-210.000000" x2="-363.730670" y2="210.000000"/>
    <line class="g" stroke-width="2" x1="363.730670" y1="-210.000000" x2="-363.730670" y2="-210.000000"/>
    <line class="g" stroke-width="2" x1="363.730670" y1="-210.000000" x2="0.000000" y2="-242.487113"/>
    <line class="g" stroke-width="2" x1="363.730670" y1="-210.000000" x2="210.000000" y2="-121.243557"/>
    <line class="g" stroke-width="2" x1="363.730670" y1="-210.000000" x2="210.000000" y2="121.243557"/>
    <line class="g" stroke-width="2" x1="363.730670" y1="-210.000000" x2="0.000000" y2="242.487113"/>
    <line class="g" stroke-width="2" x1="363.730670" y1="-210.000000" x2="-210.000000" y2="121.243557"/>
    <line class="g" stroke-width="2" x1="363.730670" y1="-210.000000" x2="-210.000000" y2="-121.243557"/>
    <line class="g" stroke-width="2" x1="363.730670" y1="210.000000" x2="0.000000" y2="420.000000"/>
    <line class="g" stroke-width="2" x1="363.730670" y1="210.000000" x2="-363.730670" y2="210.000000"/>
    <line class="g" stroke-width="2" x1="363.730670" y1="210.000000" x2="-363.730670" y2="-210.000000"/>
    <line class="g" stroke-width="2" x1="363.730670" y1="210.000000" x2="0.000000" y2="-242.487113"/>
    <line class="g" stroke-width="2" x1="363.730670" y1="210.000000" x2="210.000000" y2="-121.243557"/>
    <line class="g" stroke-width="2" x1="363.730670" y1="210.000000" x2="210.000000" y2="121.243557"/>
    <line class="g" stroke-width="2" x1="363.730670" y1="210.000000" x2="0.000000" y2="242.487113"/>
    <line class="g" stroke-width="2" x1="363.730670" y1="210.000000" x2="-210.000000" y2="121.243557"/>
    <line class="g" stroke-width="2" x1="363.730670" y1="210.000000" x2="-210.000000" y2="-121.243557"/>
    <line class="g" stroke-width="2" x1="0.000000" y1="420.000000" x2="-363.730670" y2="210.000000"/>
    <line class="g" stroke-width="2" x1="0.000000" y1="420.000000" x2="-363.730670" y2="-210.000000"/>
    <line class="g" stroke-width="2" x1="0.000000" y1="420.000000" x2="0.000000" y2="-242.487113"/>
    <line class="g" stroke-width="2" x1="0.000000" y1="420.000000" x2="210.000000" y2="-121.243557"/>
    <line class="g" stroke-width="2" x1="0.000000" y1="420.000000" x2="210.000000" y2="121.243557"/>
    <line class="g" stroke-width="2" x1="0.000000" y1="420.000000" x2="0.000000" y2="242.487113"/>
    <line class="g" stroke-width="2" x1="0.000000" y1="420.000000" x2="-210.000000" y2="121.243557"/>
    <line class="g" stroke-width="2" x1="0.000000" y1="420.000000" x2="-210.000000" y2="-121.243557"/>
    <line class="g" stroke-width="2" x1="-363.730670" y1="210.000000" x2="-363.730670" y2="-210.000000"/>
    <line class="g" stroke-width="2" x1="-363.730670" y1="210.000000" x2="0.000000" y2="-242.487113"/>
    <line class="g" stroke-width="2" x1="-363.730670" y1="210.000000" x2="210.000000" y2="-121.243557"/>
    <line class="g" stroke-width="2" x1="-363.730670" y1="210.000000" x2="210.000000" y2="121.243557"/>
    <line class="g" stroke-width="2" x1="-363.730670" y1="210.000000" x2="0.000000" y2="242.487113"/>
    <line class="g" stroke-width="2" x1="-363.730670" y1="210.000000" x2="-210.000000" y2="121.243557"/>
    <line class="g" stroke-width="2" x1="-363.730670" y1="210.000000" x2="-210.000000" y2="-121.243557"/>
    <line class="g" stroke-width="2" x1="-363.730670" y1="-210.000000" x2="0.000000" y2="-242.487113"/>
    <line class="g" stroke-width="2" x1="-363.730670" y1="-210.000000" x2="210.000000" y2="-121.243557"/>
    <line class="g" stroke-width="2" x1="-363.730670" y1="-210.000000" x2="210.000000" y2="121.243557"/>
    <line class="g" stroke-width="2" x1="-363.730670" y1="-210.000000" x2="0.000000" y2="242.487113"/>
    <line class="g" stroke-width="2" x1="-363.730670" y1="-210.000000" x2="-210.000000" y2="121.243557"/>
    <line class="g" stroke-width="2" x1="-363.730670" y1="-210.000000" x2="-210.000000" y2="-121.243557"/>
    <line class="g" stroke-width="2" x1="0.000000" y1="-242.487113" x2="210.000000" y2="-121.243557"/>
    <line class="g" stroke-width="2" x1="0.000000" y1="-242.487113" x2="210.000000" y2="121.243557"/>
    <line class="g" stroke-width="2" x1="0.000000" y1="-242.487113" x2="0.000000" y2="242.487113"/>
    <line class="g" stroke-width="2" x1="0.000000" y1="-242.487113" x2="-210.000000" y2="121.243557"/>
    <line class="g" stroke-width="2" x1="0.000000" y1="-242.487113" x2="-210.000000" y2="-121.243557"/>
    <line class="g" stroke-width="2" x1="210.000000" y1="-121.243557" x2="210.000000" y2="121.243557"/>
    <line class="g" stroke-width="2" x1="210.000000" y1="-121.243557" x2="0.000000" y2="242.487113"/>
    <line class="g" stroke-width="2" x1="210.000000" y1="-121.243557" x2="-210.000000" y2="121.243557"/>
    <line class="g" stroke-width="2" x1="210.000000" y1="-121.243557" x2="-210.000000" y2="-121.243557"/>
    <line class="g" stroke-width="2" x1="210.000000" y1="121.243557" x2="0.000000" y2="242.487113"/>
    <line class="g" stroke-width="2" x1="210.000000" y1="121.243557" x2="-210.000000" y2="121.243557"/>
    <line class="g" stroke-width="2" x1="210.000000" y1="121.243557" x2="-210.000000" y2="-121.243557"/>
    <line class="g" stroke-width="2" x1="0.000000" y1="242.487113" x2="-210.000000" y2="121.243557"/>
    <line class="g" stroke-width="2" x1="0.000000" y1="242.487113" x2="-210.000000" y2="-121.243557"/>
    <line class="g" stroke-width="2" x1="-210.000000" y1="121.243557" x2="-210.000000" y2="-121.243557"/>
  </g>
</svg>
