<svg xmlns="http://www.w3.org/2000/svg" viewBox="0 0 1080 1080" width="1080" height="1080">
  <style>:root{--gold:#d8c48a}.g{fill:none;stroke:var(--gold);vector-effect:non-scaling-stroke;stroke-linecap:round;stroke-linejoin:round}</style>
  <g transform="translate(540,540)">
    <path class="g" stroke-width="6" d="M 3.500,0.000 L 3.514,0.041 L 3.528,0.083 L 3.541,0.125 L 3.554,0.168 L 3.566,0.210 L 3.578,0.254 L 3.589,0.297 L 3.600,0.341 L 3.611,0.385 L 3.621,0.429 L 3.630,0.473 L 3.639,0.518 L 3.648,0.564 L 3.656,0.609 L 3.663,0.655 L 3.670,0.701 L 3.677,0.747 L 3.683,0.794 L 3.688,0.840 L 3.693,0.887 L 3.697,0.935 L 3.701,0.982 L 3.704,1.030 L 3.707,1.078 L 3.709,1.126 L 3.711,1.175 L 3.712,1.223 L 3.712,1.272 L 3.712,1.321 L 3.712,1.371 L 3.710,1.420 L 3.708,1.470 L 3.706,1.519 L 3.703,1.569 L 3.699,1.620 L 3.695,1.670 L 3.690,1.720 L 3.684,1.771 L 3.678,1.822 L 3.672,1.873 L 3.664,1.924 L 3.656,1.975 L 3.648,2.026 L 3.638,2.077 L 3.628,2.129 L 3.618,2.180 L 3.606,2.232 L 3.595,2.284 L 3.582,2.335 L 3.569,2.387 L 3.555,2.439 L 3.540,2.491 L 3.525,2.543 L 3.509,2.595 L 3.493,2.647 L 3.475,2.699 L 3.457,2.751 L 3.439,2.803 L 3.419,2.855 L 3.399,2.907 L 3.379,2.959 L 3.357,3.011 L 3.335,3.062 L 3.312,3.114 L 3.289,3.166 L 3.264,3.218 L 3.239,3.269 L 3.214,3.321 L 3.187,3.372 L 3.160,3.423 L 3.132,3.475 L 3.104,3.526 L 3.075,3.577 L 3.045,3.627 L 3.014,3.678 L 2.983,3.729 L 2.950,3.779 L 2.918,3.829 L 2.884,3.879 L 2.850,3.929 L 2.815,3.978 L 2.779,4.028 L 2.742,4.077 L 2.705,4.126 L 2.667,4.174 L 2.629,4.223 L 2.589,4.271 L 2.549,4.319 L 2.508,4.366 L 2.467,4.413 L 2.424,4.460 L 2.381,4.507 L 2.337,4.553 L 2.293,4.599 L 2.248,4.645 L 2.202,4.690 L 2.155,4.735 L 2.108,4.780 L 2.060,4.824 L 2.011,4.868 L 1.961,4.911 L 1.911,4.954 L 1.860,4.997 L 1.808,5.039 L 1.756,5.081 L 1.703,5.122 L 1.649,5.163 L 1.595,5.203 L 1.539,5.243 L 1.484,5.282 L 1.427,5.321 L 1.370,5.359 L 1.312,5.397 L 1.253,5.434 L 1.194,5.471 L 1.134,5.507 L 1.073,5.543 L 1.012,5.578 L 0.950,5.612 L 0.887,5.646 L 0.824,5.679 L 0.760,5.712 L 0.696,5.744 L 0.630,5.775 L 0.565,5.806 L 0.498,5.836 L 0.431,5.865 L 0.363,5.894 L 0.295,5.922 L 0.226,5.950 L 0.157,5.976 L 0.087,6.002 L 0.016,6.027 L -0.055,6.052 L -0.127,6.075 L -0.200,6.098 L -0.273,6.121 L -0.346,6.142 L -0.420,6.163 L -0.495,6.182 L -0.570,6.201 L -0.646,6.220 L -0.722,6.237 L -0.799,6.254 L -0.876,6.269 L -0.954,6.284 L -1.032,6.298 L -1.111,6.311 L -1.190,6.324 L -1.270,6.335 L -1.350,6.345 L -1.430,6.355 L -1.511,6.364 L -1.593,6.371 L -1.675,6.378 L -1.757,6.384 L -1.840,6.389 L -1.923,6.393 L -2.006,6.396 L -2.090,6.398 L -2.174,6.399 L -2.259,6.399 L -2.343,6.398 L -2.429,6.396 L -2.514,6.393 L -2.600,6.389 L -2.686,6.384 L -2.772,6.378 L -2.859,6.370 L -2.946,6.362 L -3.033,6.353 L -3.121,6.343 L -3.208,6.331 L -3.296,6.319 L -3.384,6.305 L -3.472,6.290 L -3.561,6.275 L -3.649,6.258 L -3.738,6.240 L -3.827,6.221 L -3.916,6.200 L -4.005,6.179 L -4.095,6.156 L -4.184,6.133 L -4.273,6.108 L -4.363,6.082 L -4.453,6.055 L -4.542,6.026 L -4.632,5.997 L -4.721,5.966 L -4.811,5.934 L -4.901,5.901 L -4.990,5.867 L -5.080,5.831 L -5.169,5.795 L -5.259,5.757 L -5.348,5.718 L -5.437,5.678 L -5.526,5.636 L -5.615,5.593 L -5.704,5.549 L -5.793,5.504 L -5.881,5.458 L -5.970,5.410 L -6.058,5.361 L -6.145,5.311 L -6.233,5.260 L -6.320,5.207 L -6.408,5.153 L -6.494,5.098 L -6.581,5.042 L -6.667,4.984 L -6.753,4.925 L -6.838,4.865 L -6.923,4.804 L -7.008,4.741 L -7.093,4.677 L -7.176,4.612 L -7.260,4.546 L -7.343,4.478 L -7.426,4.409 L -7.508,4.339 L -7.589,4.267 L -7.670,4.195 L -7.751,4.121 L -7.831,4.046 L -7.910,3.969 L -7.989,3.892 L -8.067,3.813 L -8.145,3.733 L -8.222,3.651 L -8.298,3.569 L -8.374,3.485 L -8.449,3.400 L -8.523,3.313 L -8.597,3.226 L -8.669,3.137 L -8.741,3.047 L -8.813,2.956 L -8.883,2.863 L -8.953,2.770 L -9.022,2.675 L -9.090,2.579 L -9.157,2.481 L -9.223,2.383 L -9.288,2.283 L -9.353,2.183 L -9.416,2.081 L -9.479,1.978 L -9.540,1.873 L -9.601,1.768 L -9.660,1.661 L -9.719,1.554 L -9.777,1.445 L -9.833,1.335 L -9.888,1.224 L -9.943,1.112 L -9.996,0.999 L -10.048,0.884 L -10.099,0.769 L -10.149,0.652 L -10.197,0.535 L -10.245,0.416 L -10.291,0.297 L -10.336,0.176 L -10.379,0.054 L -10.422,-0.068 L -10.463,-0.192 L -10.503,-0.317 L -10.541,-0.442 L -10.578,-0.569 L -10.614,-0.696 L -10.649,-0.825 L -10.682,-0.954 L -10.714,-1.084 L -10.744,-1.216 L -10.773,-1.348 L -10.800,-1.481 L -10.826,-1.615 L -10.851,-1.749 L -10.874,-1.885 L -10.895,-2.021 L -10.915,-2.158 L -10.933,-2.296 L -10.950,-2.435 L -10.965,-2.574 L -10.979,-2.714 L -10.991,-2.855 L -11.002,-2.997 L -11.010,-3.139 L -11.017,-3.282 L -11.023,-3.426 L -11.027,-3.570 L -11.029,-3.715 L -11.029,-3.860 L -11.028,-4.007 L -11.025,-4.153 L -11.020,-4.301 L -11.014,-4.448 L -11.005,-4.597 L -10.995,-4.745 L -10.983,-4.895 L -10.970,-5.044 L -10.954,-5.195 L -10.937,-5.345 L -10.917,-5.496 L -10.896,-5.648 L -10.873,-5.799 L -10.848,-5.951 L -10.822,-6.104 L -10.793,-6.256 L -10.762,-6.409 L -10.730,-6.563 L -10.695,-6.716 L -10.659,-6.870 L -10.620,-7.023 L -10.580,-7.177 L -10.537,-7.332 L -10.493,-7.486 L -10.447,-7.640 L -10.398,-7.795 L -10.348,-7.949 L -10.295,-8.104 L -10.241,-8.258 L -10.184,-8.413 L -10.126,-8.567 L -10.065,-8.721 L -10.002,-8.876 L -9.938,-9.030 L -9.871,-9.184 L -9.802,-9.338 L -9.731,-9.491 L -9.657,-9.645 L -9.582,-9.798 L -9.505,-9.951 L -9.425,-10.103 L -9.343,-10.256 L -9.260,-10.407 L -9.174,-10.559 L -9.086,-10.710 L -8.995,-10.861 L -8.903,-11.011 L -8.808,-11.161 L -8.712,-11.310 L -8.613,-11.459 L -8.512,-11.607 L -8.409,-11.754 L -8.304,-11.901 L -8.196,-12.047 L -8.086,-12.193 L -7.975,-12.338 L -7.861,-12.482 L -7.745,-12.625 L -7.626,-12.767 L -7.506,-12.909 L -7.383,-13.050 L -7.258,-13.190 L -7.131,-13.329 L -7.002,-13.467 L -6.871,-13.604 L -6.738,-13.740 L -6.602,-13.875 L -6.464,-14.009 L -6.325,-14.142 L -6.183,-14.274 L -6.039,-14.405 L -5.892,-14.534 L -5.744,-14.662 L -5.594,-14.789 L -5.441,-14.915 L -5.286,-15.040 L -5.130,-15.163 L -4.971,-15.285 L -4.810,-15.405 L -4.647,-15.524 L -4.482,-15.641 L -4.314,-15.757 L -4.145,-15.872 L -3.974,-15.985 L -3.801,-16.096 L -3.626,-16.206 L -3.448,-16.314 L -3.269,-16.421 L -3.088,-16.525 L -2.905,-16.629 L -2.719,-16.730 L -2.532,-16.829 L -2.343,-16.927 L -2.152,-17.023 L -1.959,-17.117 L -1.765,-17.209 L -1.568,-17.299 L -1.370,-17.387 L -1.169,-17.474 L -0.967,-17.558 L -0.763,-17.640 L -0.557,-17.720 L -0.350,-17.798 L -0.140,-17.874 L 0.071,-17.947 L 0.283,-18.019 L 0.498,-18.088 L 0.714,-18.155 L 0.932,-18.219 L 1.151,-18.282 L 1.372,-18.342 L 1.595,-18.399 L 1.819,-18.454 L 2.045,-18.507 L 2.272,-18.558 L 2.501,-18.605 L 2.731,-18.651 L 2.963,-18.693 L 3.196,-18.733 L 3.431,-18.771 L 3.667,-18.806 L 3.905,-18.838 L 4.143,-18.868 L 4.383,-18.895 L 4.625,-18.919 L 4.867,-18.940 L 5.111,-18.959 L 5.356,-18.975 L 5.602,-18.988 L 5.850,-18.998 L 6.098,-19.005 L 6.348,-19.009 L 6.598,-19.011 L 6.850,-19.009 L 7.103,-19.005 L 7.356,-18.997 L 7.611,-18.986 L 7.866,-18.973 L 8.122,-18.956 L 8.379,-18.936 L 8.637,-18.913 L 8.896,-18.887 L 9.155,-18.858 L 9.416,-18.825 L 9.676,-18.790 L 9.938,-18.751 L 10.200,-18.708 L 10.462,-18.663 L 10.725,-18.614 L 10.989,-18.562 L 11.253,-18.507 L 11.517,-18.448 L 11.782,-18.386 L 12.047,-18.321 L 12.312,-18.252 L 12.578,-18.179 L 12.844,-18.104 L 13.110,-18.024 L 13.376,-17.942 L 13.642,-17.856 L 13.909,-17.766 L 14.175,-17.673 L 14.441,-17.576 L 14.707,-17.476 L 14.974,-17.372 L 15.240,-17.265 L 15.505,-17.154 L 15.771,-17.039 L 16.036,-16.921 L 16.301,-16.800 L 16.565,-16.674 L 16.829,-16.545 L 17.093,-16.413 L 17.356,-16.276 L 17.619,-16.136 L 17.881,-15.993 L 18.142,-15.845 L 18.403,-15.694 L 18.662,-15.540 L 18.922,-15.381 L 19.180,-15.219 L 19.437,-15.053 L 19.694,-14.884 L 19.949,-14.711 L 20.204,-14.534 L 20.457,-14.353 L 20.709,-14.169 L 20.960,-13.980 L 21.210,-13.789 L 21.459,-13.593 L 21.706,-13.394 L 21.952,-13.191 L 22.197,-12.984 L 22.440,-12.773 L 22.681,-12.559 L 22.921,-12.341 L 23.160,-12.119 L 23.396,-11.894 L 23.631,-11.665 L 23.864,-11.432 L 24.096,-11.196 L 24.325,-10.955 L 24.553,-10.711 L 24.779,-10.464 L 25.002,-10.213 L 25.224,-9.958 L 25.443,-9.699 L 25.660,-9.437 L 25.876,-9.171 L 26.088,-8.902 L 26.299,-8.629 L 26.507,-8.352 L 26.712,-8.072 L 26.915,-7.788 L 27.116,-7.501 L 27.314,-7.210 L 27.509,-6.916 L 27.702,-6.618 L 27.892,-6.317 L 28.079,-6.012 L 28.263,-5.704 L 28.444,-5.392 L 28.622,-5.077 L 28.798,-4.759 L 28.970,-4.437 L 29.139,-4.112 L 29.305,-3.783 L 29.468,-3.452 L 29.627,-3.117 L 29.784,-2.778 L 29.936,-2.437 L 30.086,-2.092 L 30.232,-1.745 L 30.374,-1.394 L 30.513,-1.040 L 30.648,-0.683 L 30.779,-0.323 L 30.907,0.040 L 31.031,0.407 L 31.151,0.776 L 31.267,1.147 L 31.379,1.522 L 31.488,1.900 L 31.592,2.280 L 31.692,2.663 L 31.788,3.049 L 31.880,3.438 L 31.968,3.829 L 32.051,4.223 L 32.130,4.620 L 32.205,5.019 L 32.275,5.420 L 32.341,5.824 L 32.402,6.230 L 32.459,6.639 L 32.511,7.050 L 32.558,7.463 L 32.601,7.879 L 32.639,8.296 L 32.672,8.716 L 32.700,9.138 L 32.724,9.562 L 32.742,9.988 L 32.756,10.416 L 32.764,10.845 L 32.768,11.277 L 32.766,11.710 L 32.759,12.145 L 32.747,12.582 L 32.730,13.020 L 32.708,13.460 L 32.680,13.902 L 32.647,14.345 L 32.609,14.789 L 32.565,15.234 L 32.516,15.681 L 32.461,16.129 L 32.401,16.578 L 32.335,17.029 L 32.263,17.480 L 32.186,17.932 L 32.103,18.386 L 32.015,18.840 L 31.921,19.295 L 31.821,19.750 L 31.715,20.206 L 31.604,20.663 L 31.486,21.121 L 31.363,21.578 L 31.234,22.037 L 31.099,22.495 L 30.957,22.954 L 30.810,23.413 L 30.657,23.872 L 30.498,24.331 L 30.333,24.790 L 30.161,25.249 L 29.984,25.707 L 29.800,26.166 L 29.610,26.624 L 29.414,27.082 L 29.212,27.539 L 29.004,27.995 L 28.789,28.451 L 28.568,28.907 L 28.341,29.361 L 28.107,29.815 L 27.867,30.268 L 27.621,30.720 L 27.369,31.170 L 27.110,31.620 L 26.845,32.068 L 26.573,32.515 L 26.295,32.960 L 26.011,33.404 L 25.720,33.847 L 25.423,34.287 L 25.119,34.726 L 24.809,35.164 L 24.493,35.599 L 24.170,36.032 L 23.841,36.463 L 23.505,36.892 L 23.163,37.319 L 22.814,37.744 L 22.459,38.166 L 22.098,38.585 L 21.730,39.002 L 21.356,39.416 L 20.975,39.828 L 20.588,40.236 L 20.194,40.642 L 19.795,41.045 L 19.388,41.444 L 18.976,41.841 L 18.557,42.234 L 18.131,42.623 L 17.700,43.010 L 17.262,43.392 L 16.818,43.771 L 16.367,44.147 L 15.910,44.518 L 15.447,44.886 L 14.978,45.249 L 14.503,45.609 L 14.021,45.964 L 13.533,46.315 L 13.040,46.662 L 12.540,47.004 L 12.034,47.342 L 11.522,47.675 L 11.004,48.003 L 10.480,48.326 L 9.950,48.645 L 9.414,48.959 L 8.872,49.267 L 8.325,49.570 L 7.771,49.869 L 7.212,50.161 L 6.647,50.449 L 6.077,50.730 L 5.501,51.006 L 4.919,51.277 L 4.332,51.542 L 3.739,51.800 L 3.141,52.053 L 2.537,52.300 L 1.928,52.540 L 1.314,52.775 L 0.694,53.003 L 0.070,53.224 L -0.560,53.439 L -1.195,53.648 L -1.835,53.850 L -2.480,54.045 L -3.130,54.233 L -3.784,54.414 L -4.444,54.588 L -5.108,54.755 L -5.777,54.915 L -6.450,55.068 L -7.128,55.213 L -7.810,55.351 L -8.497,55.481 L -9.188,55.604 L -9.883,55.719 L -10.583,55.827 L -11.286,55.926 L -11.994,56.017 L -12.705,56.101 L -13.421,56.176 L -14.140,56.244 L -14.862,56.303 L -15.589,56.353 L -16.319,56.396 L -17.052,56.429 L -17.789,56.455 L -18.529,56.471 L -19.272,56.479 L -20.018,56.478 L -20.767,56.469 L -21.519,56.450 L -22.274,56.423 L -23.032,56.386 L -23.792,56.340 L -24.555,56.286 L -25.320,56.221 L -26.088,56.148 L -26.857,56.065 L -27.629,55.973 L -28.403,55.871 L -29.179,55.760 L -29.957,55.639 L -30.736,55.508 L -31.517,55.368 L -32.299,55.217 L -33.083,55.057 L -33.868,54.887 L -34.654,54.707 L -35.441,54.517 L -36.229,54.317 L -37.018,54.107 L -37.808,53.886 L -38.598,53.656 L -39.388,53.415 L -40.179,53.163 L -40.970,52.902 L -41.762,52.629 L -42.553,52.347 L -43.344,52.054 L -44.134,51.750 L -44.925,51.436 L -45.715,51.111 L -46.504,50.776 L -47.292,50.430 L -48.079,50.073 L -48.866,49.705 L -49.651,49.327 L -50.435,48.937 L -51.217,48.537 L -51.998,48.126 L -52.777,47.704 L -53.554,47.272 L -54.329,46.828 L -55.102,46.373 L -55.873,45.908 L -56.642,45.431 L -57.407,44.943 L -58.171,44.444 L -58.931,43.935 L -59.688,43.414 L -60.442,42.882 L -61.193,42.339 L -61.941,41.785 L -62.685,41.220 L -63.425,40.644 L -64.162,40.056 L -64.894,39.458 L -65.623,38.849 L -66.347,38.228 L -67.066,37.596 L -67.781,36.954 L -68.492,36.300 L -69.197,35.635 L -69.898,34.960 L -70.593,34.273 L -71.283,33.575 L -71.967,32.866 L -72.646,32.147 L -73.319,31.416 L -73.986,30.674 L -74.647,29.922 L -75.302,29.159 L -75.950,28.385 L -76.592,27.600 L -77.227,26.804 L -77.855,25.998 L -78.476,25.181 L -79.090,24.353 L -79.697,23.515 L -80.296,22.666 L -80.888,21.806 L -81.471,20.936 L -82.047,20.056 L -82.615,19.166 L -83.174,18.265 L -83.725,17.354 L -84.268,16.432 L -84.802,15.501 L -85.326,14.559 L -85.842,13.608 L -86.349,12.646 L -86.846,11.675 L -87.334,10.694 L -87.812,9.703 L -88.280,8.702 L -88.739,7.692 L -89.187,6.672 L -89.625,5.643 L -90.053,4.605 L -90.470,3.558 L -90.876,2.501 L -91.271,1.435 L -91.656,0.360 L -92.029,-0.723 L -92.391,-1.816 L -92.741,-2.917 L -93.080,-4.027 L -93.407,-5.145 L -93.722,-6.271 L -94.025,-7.406 L -94.316,-8.549 L -94.594,-9.700 L -94.860,-10.859 L -95.114,-12.026 L -95.354,-13.200 L -95.582,-14.382 L -95.796,-15.572 L -95.997,-16.768 L -96.185,-17.972 L -96.360,-19.184 L -96.520,-20.402 L -96.667,-21.626 L -96.800,-22.858 L -96.919,-24.096 L -97.024,-25.340 L -97.115,-26.591 L -97.191,-27.848 L -97.253,-29.110 L -97.299,-30.379 L -97.331,-31.653 L -97.348,-32.933 L -97.350,-34.218 L -97.337,-35.508 L -97.309,-36.803 L -97.265,-38.104 L -97.205,-39.408 L -97.130,-40.718 L -97.039,-42.032 L -96.932,-43.350 L -96.809,-44.672 L -96.669,-45.998 L -96.514,-47.327 L -96.342,-48.660 L -96.154,-49.997 L -95.949,-51.336 L -95.728,-52.679 L -95.489,-54.024 L -95.234,-55.372 L -94.962,-56.723 L -94.673,-58.075 L -94.366,-59.430 L -94.042,-60.786 L -93.701,-62.144 L -93.343,-63.504 L -92.967,-64.864 L -92.573,-66.226 L -92.162,-67.589 L -91.732,-68.952 L -91.285,-70.315 L -90.820,-71.679 L -90.337,-73.043 L -89.836,-74.406 L -89.317,-75.769 L -88.779,-77.132 L -88.224,-78.493 L -87.649,-79.854 L -87.057,-81.213 L -86.446,-82.570 L -85.816,-83.926 L -85.168,-85.280 L -84.501,-86.631 L -83.816,-87.981 L -83.112,-89.327 L -82.389,-90.670 L -81.647,-92.011 L -80.886,-93.348 L -80.107,-94.681 L -79.308,-96.011 L -78.491,-97.336 L -77.655,-98.657 L -76.799,-99.974 L -75.925,-101.285 L -75.031,-102.592 L -74.119,-103.893 L -73.187,-105.189 L -72.236,-106.478 L -71.267,-107.762 L -70.278,-109.040 L -69.270,-110.311 L -68.242,-111.575 L -67.196,-112.832 L -66.131,-114.082 L -65.047,-115.324 L -63.943,-116.558 L -62.821,-117.784 L -61.679,-119.002 L -60.518,-120.211 L -59.339,-121.412 L -58.140,-122.603 L -56.923,-123.785 L -55.687,-124.957 L -54.431,-126.119 L -53.157,-127.271 L -51.865,-128.413 L -50.553,-129.544 L -49.223,-130.664 L -47.874,-131.772 L -46.507,-132.869 L -45.121,-133.955 L -43.717,-135.028 L -42.294,-136.089 L -40.853,-137.138 L -39.394,-138.173 L -37.917,-139.196 L -36.422,-140.205 L -34.909,-141.201 L -33.377,-142.182 L -31.828,-143.150 L -30.262,-144.103 L -28.678,-145.041 L -27.076,-145.965 L -25.457,-146.873 L -23.821,-147.765 L -22.167,-148.642 L -20.497,-149.503 L -18.809,-150.347 L -17.105,-151.175 L -15.384,-151.986 L -13.647,-152.780 L -11.893,-153.557 L -10.123,-154.316 L -8.337,-155.057 L -6.535,-155.779 L -4.717,-156.484 L -2.883,-157.170 L -1.034,-157.836 L 0.831,-158.484 L 2.710,-159.112 L 4.605,-159.720 L 6.514,-160.309 L 8.438,-160.877 L 10.377,-161.425 L 12.330,-161.952 L 14.297,-162.458 L 16.277,-162.942 L 18.272,-163.405 L 20.280,-163.847 L 22.301,-164.266 L 24.336,-164.663 L 26.383,-165.038 L 28.443,-165.390 L 30.516,-165.719 L 32.601,-166.025 L 34.697,-166.307 L 36.806,-166.566 L 38.926,-166.801 L 41.057,-167.011 L 43.200,-167.197 L 45.353,-167.359 L 47.517,-167.496 L 49.691,-167.607 L 51.876,-167.694 L 54.070,-167.755 L 56.273,-167.790 L 58.486,-167.799 L 60.708,-167.782 L 62.939,-167.739 L 65.178,-167.669 L 67.426,-167.572 L 69.681,-167.448 L 71.944,-167.297 L 74.214,-167.119 L 76.491,-166.913 L 78.775,-166.680 L 81.065,-166.418 L 83.362,-166.128 L 85.664,-165.810 L 87.972,-165.463 L 90.285,-165.088 L 92.603,-164.683 L 94.925,-164.250 L 97.252,-163.787 L 99.583,-163.295 L 101.917,-162.774 L 104.254,-162.222 L 106.594,-161.641 L 108.937,-161.030 L 111.282,-160.388 L 113.628,-159.716 L 115.977,-159.014 L 118.326,-158.281 L 120.676,-157.517 L 123.027,-156.723 L 125.377,-155.897 L 127.728,-155.040 L 130.077,-154.152 L 132.426,-153.233 L 134.773,-152.282 L 137.118,-151.299 L 139.461,-150.285 L 141.802,-149.239 L 144.140,-148.161 L 146.474,-147.051 L 148.804,-145.909 L 151.131,-144.734 L 153.453,-143.528 L 155.769,-142.289 L 158.081,-141.017 L 160.387,-139.713 L 162.686,-138.377 L 164.980,-137.008 L 167.266,-135.606 L 169.544,-134.172 L 171.815,-132.705 L 174.078,-131.205 L 176.332,-129.672 L 178.577,-128.107 L 180.812,-126.508 L 183.038,-124.877 L 185.253,-123.212 L 187.457,-121.515 L 189.651,-119.785 L 191.832,-118.022 L 194.002,-116.226 L 196.158,-114.397 L 198.302,-112.535 L 200.433,-110.641 L 202.550,-108.713 L 204.652,-106.753 L 206.739,-104.760 L 208.812,-102.734 L 210.869,-100.675 L 212.909,-98.584 L 214.933,-96.460 L 216.941,-94.304 L 218.930,-92.115 L 220.902,-89.894 L 222.856,-87.641 L 224.790,-85.355 L 226.705,-83.038 L 228.601,-80.688 L 230.477,-78.306 L 232.331,-75.893 L 234.165,-73.448 L 235.977,-70.971 L 237.767,-68.463 L 239.535,-65.924 L 241.279,-63.354 L 243.001,-60.752 L 244.698,-58.120 L 246.371,-55.457 L 248.019,-52.763 L 249.642,-50.040 L 251.240,-47.286 L 252.811,-44.501 L 254.355,-41.688 L 255.873,-38.844 L 257.363,-35.971 L 258.824,-33.069 L 260.258,-30.138 L 261.662,-27.178 L 263.037,-24.190 L 264.382,-21.173 L 265.697,-18.129 L 266.981,-15.056 L 268.234,-11.956 L 269.455,-8.828 L 270.645,-5.674 L 271.801,-2.493 L 272.925,0.715 L 274.015,3.949 L 275.071,7.209 L 276.093,10.495 L 277.080,13.805 L 278.032,17.141 L 278.948,20.502 L 279.828,23.887 L 280.672,27.296 L 281.479,30.728 L 282.248,34.185 L 282.979,37.664 L 283.672,41.165 L 284.327,44.689 L 284.942,48.235 L 285.518,51.803 L 286.054,55.392 L 286.550,59.001 L 287.005,62.631 L 287.419,66.281 L 287.791,69.950 L 288.121,73.639 L 288.409,77.347 L 288.655,81.072 L 288.857,84.816 L 289.015,88.577 L 289.130,92.355 L 289.200,96.150 L 289.226,99.961 L 289.207,103.787 L 289.142,107.629 L 289.032,111.485 L 288.876,115.356 L 288.673,119.240 L 288.423,123.138 L 288.126,127.048 L 287.782,130.970 L 287.390,134.904 L 286.950,138.850 L 286.461,142.806 L 285.923,146.772 L 285.337,150.748 L 284.701,154.733 L 284.015,158.726 L 283.279,162.727 L 282.493,166.736 L 281.656,170.752 L 280.768,174.773 L 279.829,178.801 L 278.839,182.833 L 277.797,186.871 L 276.702,190.912 L 275.556,194.956 L 274.357,199.003 L 273.106,203.052 L 271.801,207.103 L 270.443,211.154 L 269.032,215.206 L 267.567,219.257 L 266.049,223.307 L 264.476,227.356 L 262.849,231.402 L 261.167,235.445 L 259.431,239.485 L 257.640,243.520 L 255.794,247.551 L 253.893,251.575 L 251.937,255.594 L 249.925,259.605 L 247.858,263.609 L 245.734,267.605 L 243.556,271.591 L 241.321,275.568 L 239.030,279.534 L 236.682,283.489 L 234.279,287.432 L 231.819,291.363 L 229.303,295.280 L 226.730,299.183 L 224.101,303.072 L 221.415,306.945 L 218.672,310.801 L 215.873,314.641 L 213.017,318.464 L 210.104,322.267 L 207.135,326.052 L 204.108,329.817 L 201.025,333.561 L 197.886,337.283 L 194.689,340.984 L 191.436,344.661 L 188.126,348.315 L 184.760,351.944 L 181.337,355.548 L 177.857,359.126 L 174.322,362.677 L 170.730,366.201 L 167.082,369.696 L 163.377,373.162 L 159.617,376.599 L 155.801,380.004 L 151.930,383.378 L 148.002,386.720 L 144.020,390.029 L 139.982,393.304 L 135.889,396.544 L 131.742,399.749 L 127.540,402.918 L 123.283,406.050 L 118.972,409.144 L 114.607,412.199 L 110.188,415.215 L 105.716,418.191 L 101.191,421.126 L 96.613,424.019 L 91.982,426.870 L 87.298,429.677 L 82.563,432.440 L 77.776,435.158 L 72.937,437.831 L 68.047,440.456 L 63.107,443.035 L 58.116,445.566 L 53.075,448.047 L 47.984,450.479 L 42.844,452.860 L 37.655,455.190 L 32.418,457.468 L 27.132,459.694 L 21.799,461.865 L 16.419,463.982 L 10.992,466.045 L 5.519,468.051 L 0.000,470.000"/>
    <path class="g" stroke-width="6" d="M -1.750,3.031 L -1.793,3.023 L -1.836,3.014 L -1.879,3.004 L -1.922,2.994 L -1.965,2.983 L -2.009,2.972 L -2.052,2.960 L -2.095,2.948 L -2.138,2.935 L -2.182,2.921 L -2.225,2.907 L -2.269,2.892 L -2.312,2.877 L -2.355,2.861 L -2.399,2.845 L -2.442,2.828 L -2.485,2.811 L -2.529,2.792 L -2.572,2.774 L -2.615,2.755 L -2.658,2.735 L -2.701,2.714 L -2.744,2.693 L -2.787,2.671 L -2.830,2.649 L -2.873,2.626 L -2.915,2.603 L -2.958,2.579 L -3.000,2.554 L -3.043,2.529 L -3.085,2.503 L -3.127,2.477 L -3.169,2.450 L -3.211,2.422 L -3.252,2.394 L -3.294,2.365 L -3.335,2.335 L -3.376,2.305 L -3.417,2.275 L -3.458,2.243 L -3.498,2.212 L -3.538,2.179 L -3.578,2.146 L -3.618,2.112 L -3.658,2.078 L -3.697,2.043 L -3.736,2.007 L -3.775,1.971 L -3.813,1.934 L -3.852,1.897 L -3.890,1.859 L -3.927,1.821 L -3.965,1.781 L -4.002,1.742 L -4.038,1.701 L -4.075,1.660 L -4.111,1.619 L -4.147,1.577 L -4.182,1.534 L -4.217,1.490 L -4.252,1.447 L -4.286,1.402 L -4.320,1.357 L -4.353,1.311 L -4.386,1.265 L -4.419,1.218 L -4.451,1.171 L -4.483,1.123 L -4.514,1.074 L -4.545,1.025 L -4.575,0.975 L -4.605,0.925 L -4.635,0.874 L -4.664,0.823 L -4.692,0.771 L -4.720,0.719 L -4.748,0.666 L -4.775,0.612 L -4.801,0.558 L -4.827,0.504 L -4.853,0.448 L -4.878,0.393 L -4.902,0.337 L -4.926,0.280 L -4.949,0.223 L -4.971,0.165 L -4.993,0.107 L -5.015,0.048 L -5.035,-0.011 L -5.055,-0.071 L -5.075,-0.131 L -5.094,-0.191 L -5.112,-0.252 L -5.130,-0.314 L -5.147,-0.376 L -5.163,-0.438 L -5.178,-0.501 L -5.193,-0.565 L -5.208,-0.628 L -5.221,-0.693 L -5.234,-0.757 L -5.246,-0.822 L -5.257,-0.888 L -5.268,-0.953 L -5.278,-1.020 L -5.287,-1.086 L -5.296,-1.153 L -5.303,-1.221 L -5.310,-1.288 L -5.316,-1.356 L -5.322,-1.425 L -5.326,-1.493 L -5.330,-1.562 L -5.333,-1.632 L -5.335,-1.702 L -5.336,-1.772 L -5.337,-1.842 L -5.337,-1.912 L -5.335,-1.983 L -5.333,-2.055 L -5.331,-2.126 L -5.327,-2.198 L -5.322,-2.269 L -5.317,-2.342 L -5.310,-2.414 L -5.303,-2.487 L -5.295,-2.559 L -5.286,-2.632 L -5.276,-2.706 L -5.266,-2.779 L -5.254,-2.852 L -5.241,-2.926 L -5.228,-3.000 L -5.213,-3.074 L -5.198,-3.148 L -5.181,-3.222 L -5.164,-3.297 L -5.146,-3.371 L -5.127,-3.445 L -5.107,-3.520 L -5.085,-3.595 L -5.063,-3.669 L -5.040,-3.744 L -5.016,-3.819 L -4.991,-3.894 L -4.965,-3.968 L -4.938,-4.043 L -4.910,-4.118 L -4.881,-4.192 L -4.851,-4.267 L -4.820,-4.342 L -4.788,-4.416 L -4.755,-4.491 L -4.721,-4.565 L -4.686,-4.639 L -4.650,-4.714 L -4.613,-4.788 L -4.575,-4.861 L -4.536,-4.935 L -4.496,-5.009 L -4.454,-5.082 L -4.412,-5.155 L -4.369,-5.228 L -4.325,-5.301 L -4.279,-5.374 L -4.233,-5.446 L -4.185,-5.518 L -4.137,-5.590 L -4.087,-5.661 L -4.037,-5.732 L -3.985,-5.803 L -3.933,-5.874 L -3.879,-5.944 L -3.824,-6.014 L -3.768,-6.083 L -3.711,-6.152 L -3.654,-6.221 L -3.595,-6.289 L -3.535,-6.357 L -3.474,-6.425 L -3.412,-6.492 L -3.348,-6.558 L -3.284,-6.624 L -3.219,-6.690 L -3.153,-6.755 L -3.086,-6.819 L -3.017,-6.883 L -2.948,-6.947 L -2.878,-7.010 L -2.806,-7.072 L -2.734,-7.134 L -2.660,-7.195 L -2.586,-7.255 L -2.510,-7.315 L -2.434,-7.374 L -2.356,-7.433 L -2.278,-7.490 L -2.198,-7.548 L -2.118,-7.604 L -2.036,-7.660 L -1.954,-7.715 L -1.870,-7.769 L -1.786,-7.822 L -1.700,-7.875 L -1.614,-7.927 L -1.527,-7.978 L -1.438,-8.028 L -1.349,-8.077 L -1.259,-8.126 L -1.168,-8.173 L -1.076,-8.220 L -0.983,-8.266 L -0.889,-8.311 L -0.794,-8.355 L -0.698,-8.398 L -0.602,-8.440 L -0.504,-8.481 L -0.406,-8.521 L -0.307,-8.560 L -0.207,-8.598 L -0.106,-8.635 L -0.004,-8.671 L 0.099,-8.706 L 0.202,-8.740 L 0.307,-8.773 L 0.412,-8.805 L 0.518,-8.835 L 0.624,-8.865 L 0.732,-8.893 L 0.840,-8.920 L 0.949,-8.946 L 1.059,-8.971 L 1.169,-8.994 L 1.280,-9.017 L 1.392,-9.038 L 1.505,-9.058 L 1.618,-9.076 L 1.732,-9.094 L 1.847,-9.110 L 1.962,-9.125 L 2.078,-9.138 L 2.194,-9.150 L 2.312,-9.161 L 2.429,-9.171 L 2.548,-9.179 L 2.667,-9.186 L 2.786,-9.191 L 2.906,-9.195 L 3.027,-9.198 L 3.148,-9.199 L 3.269,-9.199 L 3.391,-9.197 L 3.514,-9.194 L 3.637,-9.189 L 3.760,-9.183 L 3.884,-9.176 L 4.008,-9.166 L 4.133,-9.156 L 4.258,-9.144 L 4.384,-9.130 L 4.509,-9.115 L 4.635,-9.098 L 4.762,-9.080 L 4.888,-9.060 L 5.015,-9.039 L 5.143,-9.016 L 5.270,-8.991 L 5.398,-8.965 L 5.526,-8.937 L 5.654,-8.908 L 5.782,-8.877 L 5.910,-8.844 L 6.039,-8.810 L 6.167,-8.774 L 6.296,-8.736 L 6.425,-8.697 L 6.554,-8.656 L 6.682,-8.613 L 6.811,-8.568 L 6.940,-8.522 L 7.069,-8.474 L 7.198,-8.425 L 7.326,-8.374 L 7.455,-8.320 L 7.584,-8.266 L 7.712,-8.209 L 7.840,-8.151 L 7.968,-8.091 L 8.096,-8.029 L 8.224,-7.966 L 8.351,-7.900 L 8.478,-7.833 L 8.605,-7.764 L 8.732,-7.694 L 8.858,-7.621 L 8.984,-7.547 L 9.109,-7.471 L 9.234,-7.393 L 9.359,-7.314 L 9.483,-7.233 L 9.607,-7.149 L 9.731,-7.064 L 9.853,-6.978 L 9.976,-6.889 L 10.097,-6.799 L 10.218,-6.707 L 10.339,-6.613 L 10.459,-6.517 L 10.578,-6.419 L 10.697,-6.320 L 10.815,-6.219 L 10.932,-6.116 L 11.048,-6.011 L 11.164,-5.904 L 11.279,-5.796 L 11.393,-5.686 L 11.506,-5.574 L 11.618,-5.460 L 11.730,-5.344 L 11.840,-5.227 L 11.950,-5.108 L 12.058,-4.987 L 12.166,-4.864 L 12.272,-4.740 L 12.378,-4.614 L 12.482,-4.486 L 12.586,-4.356 L 12.688,-4.224 L 12.789,-4.091 L 12.889,-3.956 L 12.987,-3.820 L 13.085,-3.681 L 13.181,-3.541 L 13.276,-3.399 L 13.370,-3.256 L 13.462,-3.111 L 13.553,-2.964 L 13.643,-2.815 L 13.731,-2.665 L 13.818,-2.513 L 13.903,-2.360 L 13.987,-2.205 L 14.070,-2.048 L 14.151,-1.890 L 14.230,-1.730 L 14.308,-1.568 L 14.384,-1.405 L 14.458,-1.241 L 14.531,-1.074 L 14.602,-0.907 L 14.672,-0.737 L 14.740,-0.567 L 14.806,-0.394 L 14.870,-0.221 L 14.933,-0.046 L 14.993,0.131 L 15.052,0.309 L 15.109,0.488 L 15.164,0.669 L 15.217,0.851 L 15.268,1.035 L 15.317,1.220 L 15.365,1.406 L 15.410,1.594 L 15.453,1.783 L 15.494,1.973 L 15.533,2.164 L 15.570,2.357 L 15.605,2.551 L 15.637,2.746 L 15.668,2.942 L 15.696,3.139 L 15.722,3.338 L 15.746,3.537 L 15.767,3.738 L 15.787,3.939 L 15.804,4.142 L 15.818,4.346 L 15.830,4.551 L 15.840,4.756 L 15.848,4.963 L 15.853,5.171 L 15.855,5.379 L 15.855,5.589 L 15.853,5.799 L 15.848,6.010 L 15.841,6.222 L 15.831,6.434 L 15.819,6.648 L 15.803,6.862 L 15.786,7.076 L 15.766,7.292 L 15.743,7.508 L 15.717,7.724 L 15.689,7.941 L 15.658,8.159 L 15.625,8.377 L 15.588,8.596 L 15.549,8.815 L 15.508,9.035 L 15.463,9.255 L 15.416,9.475 L 15.366,9.696 L 15.313,9.917 L 15.257,10.138 L 15.198,10.359 L 15.137,10.581 L 15.072,10.803 L 15.005,11.025 L 14.935,11.247 L 14.862,11.469 L 14.786,11.691 L 14.707,11.913 L 14.625,12.135 L 14.541,12.357 L 14.453,12.579 L 14.362,12.801 L 14.268,13.022 L 14.172,13.243 L 14.072,13.465 L 13.969,13.685 L 13.863,13.906 L 13.755,14.126 L 13.643,14.346 L 13.528,14.565 L 13.410,14.784 L 13.289,15.002 L 13.165,15.220 L 13.037,15.437 L 12.907,15.653 L 12.774,15.869 L 12.637,16.084 L 12.498,16.299 L 12.355,16.512 L 12.209,16.725 L 12.061,16.937 L 11.909,17.148 L 11.754,17.358 L 11.595,17.567 L 11.434,17.775 L 11.270,17.982 L 11.102,18.187 L 10.932,18.392 L 10.758,18.595 L 10.581,18.798 L 10.401,18.999 L 10.218,19.198 L 10.032,19.396 L 9.843,19.593 L 9.650,19.789 L 9.455,19.983 L 9.256,20.175 L 9.055,20.366 L 8.850,20.555 L 8.642,20.742 L 8.431,20.928 L 8.218,21.112 L 8.001,21.295 L 7.781,21.475 L 7.558,21.654 L 7.332,21.830 L 7.103,22.005 L 6.871,22.178 L 6.636,22.348 L 6.398,22.517 L 6.158,22.683 L 5.914,22.847 L 5.667,23.009 L 5.418,23.169 L 5.165,23.326 L 4.910,23.481 L 4.652,23.634 L 4.390,23.784 L 4.127,23.932 L 3.860,24.077 L 3.590,24.220 L 3.318,24.360 L 3.043,24.497 L 2.765,24.632 L 2.485,24.764 L 2.202,24.893 L 1.916,25.019 L 1.627,25.142 L 1.336,25.263 L 1.042,25.380 L 0.746,25.495 L 0.447,25.606 L 0.146,25.715 L -0.158,25.820 L -0.464,25.922 L -0.773,26.021 L -1.084,26.116 L -1.398,26.209 L -1.714,26.298 L -2.032,26.383 L -2.352,26.465 L -2.675,26.544 L -3.000,26.619 L -3.327,26.691 L -3.657,26.759 L -3.988,26.823 L -4.322,26.884 L -4.658,26.941 L -4.995,26.994 L -5.335,27.044 L -5.677,27.090 L -6.020,27.132 L -6.366,27.169 L -6.713,27.203 L -7.062,27.234 L -7.413,27.260 L -7.765,27.282 L -8.120,27.299 L -8.475,27.313 L -8.833,27.323 L -9.192,27.328 L -9.552,27.329 L -9.914,27.326 L -10.278,27.319 L -10.643,27.307 L -11.009,27.291 L -11.376,27.271 L -11.745,27.246 L -12.115,27.216 L -12.486,27.182 L -12.858,27.144 L -13.231,27.101 L -13.605,27.054 L -13.980,27.001 L -14.356,26.945 L -14.733,26.883 L -15.110,26.817 L -15.489,26.746 L -15.868,26.670 L -16.247,26.590 L -16.627,26.504 L -17.008,26.414 L -17.389,26.319 L -17.771,26.219 L -18.153,26.114 L -18.535,26.005 L -18.917,25.890 L -19.300,25.770 L -19.683,25.645 L -20.066,25.516 L -20.449,25.381 L -20.831,25.241 L -21.214,25.096 L -21.597,24.946 L -21.979,24.790 L -22.361,24.630 L -22.742,24.464 L -23.124,24.294 L -23.504,24.118 L -23.884,23.937 L -24.264,23.750 L -24.643,23.558 L -25.021,23.362 L -25.398,23.159 L -25.774,22.952 L -26.150,22.739 L -26.524,22.521 L -26.898,22.298 L -27.270,22.069 L -27.641,21.835 L -28.011,21.596 L -28.379,21.351 L -28.746,21.101 L -29.112,20.846 L -29.476,20.585 L -29.838,20.319 L -30.199,20.047 L -30.558,19.770 L -30.915,19.488 L -31.270,19.201 L -31.623,18.908 L -31.974,18.610 L -32.323,18.306 L -32.670,17.997 L -33.015,17.683 L -33.357,17.363 L -33.697,17.038 L -34.034,16.708 L -34.369,16.372 L -34.701,16.031 L -35.031,15.685 L -35.357,15.333 L -35.681,14.976 L -36.002,14.614 L -36.320,14.247 L -36.635,13.874 L -36.946,13.496 L -37.255,13.113 L -37.560,12.725 L -37.862,12.331 L -38.160,11.933 L -38.455,11.529 L -38.747,11.120 L -39.034,10.706 L -39.318,10.287 L -39.598,9.863 L -39.874,9.434 L -40.146,9.000 L -40.415,8.561 L -40.679,8.117 L -40.938,7.668 L -41.194,7.214 L -41.445,6.756 L -41.692,6.292 L -41.934,5.824 L -42.172,5.351 L -42.405,4.873 L -42.634,4.391 L -42.857,3.904 L -43.076,3.412 L -43.290,2.916 L -43.499,2.415 L -43.702,1.910 L -43.901,1.400 L -44.094,0.886 L -44.282,0.367 L -44.465,-0.155 L -44.642,-0.682 L -44.813,-1.214 L -44.979,-1.749 L -45.140,-2.289 L -45.294,-2.832 L -45.443,-3.380 L -45.586,-3.931 L -45.723,-4.487 L -45.854,-5.046 L -45.979,-5.609 L -46.097,-6.176 L -46.210,-6.747 L -46.316,-7.321 L -46.416,-7.899 L -46.509,-8.480 L -46.596,-9.065 L -46.676,-9.653 L -46.750,-10.245 L -46.817,-10.839 L -46.877,-11.437 L -46.930,-12.038 L -46.976,-12.642 L -47.016,-13.249 L -47.048,-13.859 L -47.074,-14.472 L -47.092,-15.088 L -47.103,-15.706 L -47.106,-16.327 L -47.103,-16.950 L -47.092,-17.576 L -47.073,-18.204 L -47.047,-18.835 L -47.013,-19.468 L -46.972,-20.103 L -46.923,-20.740 L -46.867,-21.379 L -46.802,-22.019 L -46.730,-22.662 L -46.650,-23.307 L -46.562,-23.953 L -46.465,-24.600 L -46.361,-25.249 L -46.249,-25.900 L -46.128,-26.552 L -46.000,-27.205 L -45.863,-27.859 L -45.718,-28.514 L -45.564,-29.170 L -45.402,-29.827 L -45.232,-30.484 L -45.053,-31.143 L -44.866,-31.801 L -44.670,-32.460 L -44.465,-33.120 L -44.252,-33.780 L -44.030,-34.440 L -43.800,-35.099 L -43.561,-35.759 L -43.313,-36.419 L -43.056,-37.078 L -42.790,-37.737 L -42.516,-38.396 L -42.232,-39.054 L -41.940,-39.711 L -41.639,-40.367 L -41.328,-41.023 L -41.009,-41.677 L -40.681,-42.330 L -40.343,-42.982 L -39.997,-43.633 L -39.641,-44.282 L -39.277,-44.930 L -38.903,-45.575 L -38.520,-46.219 L -38.128,-46.862 L -37.726,-47.502 L -37.316,-48.139 L -36.896,-48.775 L -36.467,-49.408 L -36.029,-50.039 L -35.582,-50.667 L -35.125,-51.292 L -34.659,-51.914 L -34.184,-52.533 L -33.700,-53.150 L -33.206,-53.762 L -32.703,-54.372 L -32.191,-54.978 L -31.670,-55.580 L -31.140,-56.179 L -30.600,-56.774 L -30.051,-57.365 L -29.493,-57.951 L -28.925,-58.534 L -28.349,-59.112 L -27.763,-59.685 L -27.168,-60.254 L -26.564,-60.819 L -25.951,-61.378 L -25.329,-61.932 L -24.698,-62.481 L -24.057,-63.025 L -23.408,-63.564 L -22.750,-64.097 L -22.083,-64.624 L -21.406,-65.146 L -20.721,-65.661 L -20.027,-66.171 L -19.325,-66.674 L -18.613,-67.171 L -17.893,-67.662 L -17.164,-68.146 L -16.426,-68.624 L -15.680,-69.095 L -14.925,-69.558 L -14.161,-70.015 L -13.390,-70.465 L -12.609,-70.907 L -11.821,-71.341 L -11.024,-71.768 L -10.218,-72.188 L -9.405,-72.599 L -8.583,-73.003 L -7.753,-73.398 L -6.916,-73.786 L -6.070,-74.165 L -5.216,-74.535 L -4.355,-74.897 L -3.486,-75.250 L -2.609,-75.594 L -1.725,-75.929 L -0.833,-76.255 L 0.067,-76.572 L 0.974,-76.879 L 1.888,-77.177 L 2.809,-77.466 L 3.737,-77.744 L 4.673,-78.013 L 5.615,-78.272 L 6.565,-78.520 L 7.521,-78.759 L 8.483,-78.987 L 9.452,-79.204 L 10.428,-79.411 L 11.410,-79.607 L 12.399,-79.793 L 13.393,-79.967 L 14.394,-80.130 L 15.400,-80.282 L 16.413,-80.423 L 17.431,-80.553 L 18.455,-80.671 L 19.484,-80.777 L 20.519,-80.871 L 21.559,-80.954 L 22.604,-81.025 L 23.654,-81.083 L 24.710,-81.129 L 25.769,-81.163 L 26.834,-81.185 L 27.903,-81.194 L 28.977,-81.191 L 30.055,-81.174 L 31.137,-81.145 L 32.223,-81.103 L 33.312,-81.048 L 34.406,-80.980 L 35.503,-80.899 L 36.604,-80.804 L 37.708,-80.696 L 38.815,-80.575 L 39.925,-80.439 L 41.038,-80.290 L 42.154,-80.128 L 43.272,-79.951 L 44.393,-79.761 L 45.516,-79.556 L 46.641,-79.338 L 47.768,-79.105 L 48.897,-78.858 L 50.027,-78.596 L 51.159,-78.320 L 52.292,-78.030 L 53.426,-77.725 L 54.562,-77.405 L 55.698,-77.071 L 56.834,-76.722 L 57.971,-76.358 L 59.109,-75.979 L 60.246,-75.585 L 61.383,-75.176 L 62.521,-74.752 L 63.657,-74.313 L 64.793,-73.858 L 65.928,-73.388 L 67.063,-72.903 L 68.196,-72.403 L 69.327,-71.887 L 70.457,-71.355 L 71.586,-70.809 L 72.712,-70.246 L 73.837,-69.668 L 74.959,-69.074 L 76.078,-68.465 L 77.195,-67.840 L 78.309,-67.199 L 79.419,-66.542 L 80.527,-65.870 L 81.631,-65.182 L 82.731,-64.478 L 83.828,-63.758 L 84.920,-63.022 L 86.008,-62.270 L 87.091,-61.503 L 88.170,-60.719 L 89.244,-59.920 L 90.312,-59.105 L 91.375,-58.273 L 92.433,-57.426 L 93.485,-56.563 L 94.531,-55.684 L 95.571,-54.789 L 96.604,-53.878 L 97.631,-52.951 L 98.651,-52.009 L 99.663,-51.050 L 100.669,-50.076 L 101.667,-49.085 L 102.657,-48.079 L 103.640,-47.058 L 104.614,-46.020 L 105.580,-44.967 L 106.537,-43.898 L 107.486,-42.813 L 108.425,-41.713 L 109.356,-40.597 L 110.277,-39.466 L 111.188,-38.319 L 112.089,-37.157 L 112.980,-35.980 L 113.861,-34.787 L 114.731,-33.579 L 115.590,-32.356 L 116.439,-31.118 L 117.276,-29.865 L 118.101,-28.596 L 118.915,-27.313 L 119.717,-26.016 L 120.507,-24.703 L 121.285,-23.376 L 122.050,-22.034 L 122.802,-20.678 L 123.541,-19.307 L 124.267,-17.922 L 124.979,-16.523 L 125.678,-15.110 L 126.363,-13.683 L 127.033,-12.242 L 127.690,-10.788 L 128.331,-9.319 L 128.958,-7.837 L 129.570,-6.342 L 130.167,-4.834 L 130.748,-3.312 L 131.313,-1.778 L 131.863,-0.230 L 132.396,1.330 L 132.914,2.903 L 133.414,4.488 L 133.898,6.085 L 134.365,7.695 L 134.815,9.317 L 135.247,10.950 L 135.662,12.596 L 136.059,14.252 L 136.438,15.920 L 136.799,17.600 L 137.141,19.290 L 137.465,20.991 L 137.769,22.703 L 138.055,24.426 L 138.322,26.158 L 138.569,27.901 L 138.796,29.654 L 139.004,31.417 L 139.192,33.189 L 139.359,34.970 L 139.506,36.761 L 139.632,38.560 L 139.738,40.369 L 139.822,42.186 L 139.886,44.011 L 139.928,45.844 L 139.948,47.685 L 139.947,49.534 L 139.924,51.390 L 139.879,53.253 L 139.811,55.124 L 139.722,57.001 L 139.609,58.884 L 139.474,60.774 L 139.316,62.670 L 139.135,64.572 L 138.930,66.479 L 138.703,68.391 L 138.451,70.309 L 138.176,72.231 L 137.877,74.157 L 137.554,76.088 L 137.207,78.023 L 136.836,79.961 L 136.440,81.903 L 136.020,83.848 L 135.574,85.796 L 135.104,87.746 L 134.609,89.699 L 134.089,91.654 L 133.544,93.610 L 132.973,95.568 L 132.377,97.527 L 131.755,99.486 L 131.108,101.447 L 130.435,103.407 L 129.736,105.368 L 129.010,107.328 L 128.259,109.287 L 127.481,111.245 L 126.678,113.202 L 125.847,115.158 L 124.991,117.111 L 124.107,119.062 L 123.197,121.011 L 122.261,122.957 L 121.297,124.899 L 120.307,126.838 L 119.289,128.773 L 118.245,130.703 L 117.174,132.629 L 116.075,134.550 L 114.949,136.466 L 113.796,138.376 L 112.616,140.280 L 111.409,142.178 L 110.174,144.070 L 108.912,145.954 L 107.622,147.831 L 106.306,149.700 L 104.961,151.561 L 103.589,153.414 L 102.190,155.258 L 100.763,157.092 L 99.309,158.918 L 97.828,160.733 L 96.318,162.538 L 94.782,164.333 L 93.218,166.116 L 91.627,167.889 L 90.008,169.649 L 88.362,171.398 L 86.688,173.134 L 84.987,174.857 L 83.259,176.567 L 81.504,178.263 L 79.722,179.946 L 77.912,181.614 L 76.076,183.267 L 74.212,184.906 L 72.322,186.529 L 70.405,188.136 L 68.461,189.726 L 66.491,191.301 L 64.493,192.858 L 62.470,194.398 L 60.420,195.920 L 58.344,197.424 L 56.241,198.909 L 54.113,200.375 L 51.958,201.823 L 49.778,203.250 L 47.572,204.658 L 45.341,206.045 L 43.084,207.411 L 40.802,208.756 L 38.495,210.079 L 36.163,211.380 L 33.806,212.659 L 31.424,213.916 L 29.018,215.149 L 26.588,216.358 L 24.133,217.544 L 21.655,218.705 L 19.153,219.842 L 16.628,220.954 L 14.079,222.040 L 11.507,223.101 L 8.912,224.135 L 6.294,225.143 L 3.654,226.123 L 0.992,227.077 L -1.693,228.003 L -4.399,228.900 L -7.126,229.770 L -9.875,230.610 L -12.645,231.421 L -15.436,232.203 L -18.247,232.955 L -21.078,233.677 L -23.930,234.368 L -26.801,235.028 L -29.691,235.657 L -32.600,236.254 L -35.529,236.819 L -38.475,237.352 L -41.440,237.852 L -44.423,238.318 L -47.423,238.752 L -50.440,239.151 L -53.475,239.517 L -56.526,239.848 L -59.593,240.144 L -62.675,240.405 L -65.774,240.631 L -68.887,240.821 L -72.016,240.975 L -75.158,241.092 L -78.315,241.173 L -81.486,241.216 L -84.669,241.223 L -87.866,241.191 L -91.075,241.122 L -94.296,241.014 L -97.529,240.868 L -100.773,240.683 L -104.028,240.459 L -107.294,240.195 L -110.569,239.892 L -113.855,239.548 L -117.149,239.165 L -120.452,238.741 L -123.763,238.276 L -127.082,237.770 L -130.409,237.222 L -133.742,236.633 L -137.082,236.002 L -140.427,235.329 L -143.779,234.614 L -147.135,233.856 L -150.496,233.056 L -153.861,232.212 L -157.229,231.325 L -160.601,230.395 L -163.975,229.421 L -167.351,228.403 L -170.729,227.342 L -174.107,226.235 L -177.486,225.085 L -180.866,223.890 L -184.244,222.650 L -187.622,221.365 L -190.998,220.035 L -194.372,218.659 L -197.743,217.238 L -201.110,215.771 L -204.474,214.259 L -207.834,212.701 L -211.189,211.097 L -214.538,209.446 L -217.881,207.749 L -221.218,206.006 L -224.547,204.216 L -227.869,202.380 L -231.182,200.497 L -234.486,198.567 L -237.781,196.590 L -241.065,194.567 L -244.339,192.496 L -247.601,190.378 L -250.852,188.213 L -254.090,186.001 L -257.315,183.741 L -260.526,181.435 L -263.722,179.081 L -266.904,176.679 L -270.070,174.231 L -273.220,171.735 L -276.353,169.192 L -279.468,166.601 L -282.565,163.963 L -285.644,161.278 L -288.703,158.545 L -291.742,155.765 L -294.761,152.939 L -297.758,150.065 L -300.733,147.144 L -303.685,144.176 L -306.615,141.161 L -309.520,138.099 L -312.401,134.990 L -315.257,131.835 L -318.086,128.634 L -320.890,125.386 L -323.666,122.092 L -326.414,118.751 L -329.134,115.365 L -331.824,111.933 L -334.485,108.455 L -337.116,104.931 L -339.715,101.363 L -342.282,97.749 L -344.817,94.090 L -347.319,90.387 L -349.787,86.639 L -352.221,82.846 L -354.620,79.010 L -356.982,75.130 L -359.309,71.206 L -361.598,67.239 L -363.850,63.229 L -366.063,59.176 L -368.237,55.080 L -370.371,50.942 L -372.465,46.762 L -374.518,42.541 L -376.529,38.279 L -378.498,33.975 L -380.424,29.631 L -382.306,25.246 L -384.144,20.822 L -385.937,16.358 L -387.684,11.855 L -389.385,7.313 L -391.039,2.732 L -392.645,-1.886 L -394.203,-6.542 L -395.712,-11.235 L -397.172,-15.965 L -398.582,-20.732 L -399.941,-25.534 L -401.249,-30.372 L -402.504,-35.244 L -403.707,-40.151 L -404.857,-45.092 L -405.953,-50.067 L -406.994,-55.074 L -407.980,-60.114 L -408.911,-65.186 L -409.785,-70.290 L -410.602,-75.424 L -411.362,-80.589 L -412.064,-85.783 L -412.707,-91.007 L -413.291,-96.259 L -413.815,-101.539 L -414.279,-106.847 L -414.681,-112.182 L -415.022,-117.543 L -415.301,-122.929 L -415.518,-128.341 L -415.671,-133.776 L -415.760,-139.236 L -415.786,-144.719 L -415.746,-150.223 L -415.641,-155.750 L -415.470,-161.298 L -415.233,-166.866 L -414.929,-172.453 L -414.557,-178.060 L -414.118,-183.684 L -413.610,-189.326 L -413.034,-194.985 L -412.388,-200.660 L -411.673,-206.350 L -410.887,-212.054 L -410.030,-217.772 L -409.102,-223.503 L -408.103,-229.246 L -407.032,-235.000"/>
    <path class="g" stroke-width="6" d="M -1.750,-3.031 L -1.721,-3.064 L -1.692,-3.097 L -1.662,-3.129 L -1.632,-3.161 L -1.601,-3.194 L -1.569,-3.225 L -1.538,-3.257 L -1.505,-3.288 L -1.472,-3.319 L -1.439,-3.350 L -1.405,-3.381 L -1.371,-3.411 L -1.336,-3.441 L -1.300,-3.470 L -1.265,-3.500 L -1.228,-3.529 L -1.191,-3.558 L -1.154,-3.586 L -1.116,-3.614 L -1.078,-3.642 L -1.039,-3.669 L -1.000,-3.696 L -0.960,-3.723 L -0.920,-3.749 L -0.879,-3.775 L -0.838,-3.801 L -0.797,-3.826 L -0.754,-3.851 L -0.712,-3.876 L -0.669,-3.900 L -0.625,-3.923 L -0.581,-3.946 L -0.537,-3.969 L -0.492,-3.991 L -0.447,-4.013 L -0.401,-4.035 L -0.355,-4.056 L -0.309,-4.076 L -0.262,-4.096 L -0.214,-4.116 L -0.166,-4.135 L -0.118,-4.154 L -0.069,-4.172 L -0.020,-4.189 L 0.029,-4.207 L 0.079,-4.223 L 0.130,-4.239 L 0.180,-4.255 L 0.231,-4.270 L 0.283,-4.284 L 0.335,-4.298 L 0.387,-4.311 L 0.440,-4.324 L 0.493,-4.336 L 0.546,-4.348 L 0.600,-4.359 L 0.654,-4.369 L 0.708,-4.379 L 0.763,-4.389 L 0.818,-4.397 L 0.873,-4.405 L 0.929,-4.413 L 0.985,-4.419 L 1.041,-4.426 L 1.098,-4.431 L 1.154,-4.436 L 1.212,-4.440 L 1.269,-4.444 L 1.327,-4.446 L 1.385,-4.449 L 1.443,-4.450 L 1.501,-4.451 L 1.560,-4.451 L 1.619,-4.451 L 1.678,-4.449 L 1.738,-4.447 L 1.797,-4.445 L 1.857,-4.441 L 1.917,-4.437 L 1.978,-4.432 L 2.038,-4.427 L 2.099,-4.420 L 2.159,-4.413 L 2.220,-4.406 L 2.281,-4.397 L 2.343,-4.388 L 2.404,-4.378 L 2.466,-4.367 L 2.527,-4.355 L 2.589,-4.343 L 2.651,-4.330 L 2.713,-4.316 L 2.775,-4.301 L 2.837,-4.285 L 2.899,-4.269 L 2.961,-4.252 L 3.023,-4.234 L 3.086,-4.215 L 3.148,-4.196 L 3.210,-4.175 L 3.273,-4.154 L 3.335,-4.132 L 3.397,-4.109 L 3.460,-4.086 L 3.522,-4.061 L 3.584,-4.036 L 3.646,-4.010 L 3.709,-3.982 L 3.771,-3.955 L 3.833,-3.926 L 3.895,-3.896 L 3.956,-3.866 L 4.018,-3.835 L 4.080,-3.802 L 4.141,-3.769 L 4.202,-3.736 L 4.264,-3.701 L 4.325,-3.665 L 4.385,-3.629 L 4.446,-3.592 L 4.506,-3.553 L 4.567,-3.514 L 4.627,-3.474 L 4.686,-3.434 L 4.746,-3.392 L 4.805,-3.349 L 4.864,-3.306 L 4.923,-3.262 L 4.981,-3.217 L 5.039,-3.171 L 5.097,-3.124 L 5.155,-3.076 L 5.212,-3.027 L 5.269,-2.978 L 5.325,-2.927 L 5.381,-2.876 L 5.437,-2.824 L 5.492,-2.771 L 5.547,-2.717 L 5.602,-2.662 L 5.656,-2.607 L 5.709,-2.550 L 5.763,-2.493 L 5.815,-2.435 L 5.867,-2.376 L 5.919,-2.316 L 5.970,-2.255 L 6.021,-2.194 L 6.071,-2.131 L 6.121,-2.068 L 6.170,-2.004 L 6.219,-1.939 L 6.267,-1.873 L 6.314,-1.806 L 6.361,-1.739 L 6.407,-1.670 L 6.453,-1.601 L 6.498,-1.531 L 6.542,-1.461 L 6.586,-1.389 L 6.628,-1.317 L 6.671,-1.243 L 6.712,-1.169 L 6.753,-1.095 L 6.793,-1.019 L 6.833,-0.943 L 6.871,-0.866 L 6.909,-0.788 L 6.946,-0.709 L 6.983,-0.630 L 7.018,-0.550 L 7.053,-0.469 L 7.087,-0.387 L 7.120,-0.305 L 7.152,-0.222 L 7.184,-0.138 L 7.214,-0.054 L 7.244,0.032 L 7.273,0.118 L 7.301,0.204 L 7.328,0.291 L 7.354,0.379 L 7.379,0.468 L 7.403,0.557 L 7.426,0.647 L 7.449,0.738 L 7.470,0.829 L 7.490,0.920 L 7.509,1.013 L 7.528,1.106 L 7.545,1.199 L 7.561,1.294 L 7.576,1.388 L 7.590,1.484 L 7.603,1.579 L 7.615,1.676 L 7.626,1.773 L 7.635,1.870 L 7.644,1.968 L 7.652,2.066 L 7.658,2.165 L 7.663,2.265 L 7.667,2.364 L 7.670,2.465 L 7.672,2.565 L 7.672,2.667 L 7.672,2.768 L 7.670,2.870 L 7.667,2.973 L 7.662,3.075 L 7.657,3.178 L 7.650,3.282 L 7.642,3.386 L 7.632,3.490 L 7.622,3.594 L 7.610,3.699 L 7.597,3.804 L 7.582,3.909 L 7.567,4.014 L 7.550,4.120 L 7.531,4.226 L 7.511,4.332 L 7.490,4.439 L 7.468,4.545 L 7.444,4.652 L 7.419,4.759 L 7.393,4.866 L 7.365,4.973 L 7.336,5.080 L 7.305,5.187 L 7.273,5.295 L 7.240,5.402 L 7.205,5.510 L 7.168,5.617 L 7.131,5.725 L 7.092,5.832 L 7.051,5.939 L 7.009,6.047 L 6.966,6.154 L 6.921,6.261 L 6.875,6.369 L 6.827,6.476 L 6.778,6.583 L 6.727,6.689 L 6.675,6.796 L 6.622,6.902 L 6.567,7.008 L 6.510,7.114 L 6.452,7.220 L 6.393,7.325 L 6.332,7.431 L 6.269,7.536 L 6.205,7.640 L 6.140,7.744 L 6.073,7.848 L 6.004,7.952 L 5.934,8.055 L 5.863,8.157 L 5.790,8.260 L 5.715,8.361 L 5.639,8.463 L 5.562,8.564 L 5.483,8.664 L 5.402,8.764 L 5.320,8.863 L 5.237,8.962 L 5.152,9.060 L 5.065,9.157 L 4.977,9.254 L 4.888,9.350 L 4.797,9.446 L 4.704,9.540 L 4.610,9.634 L 4.515,9.728 L 4.418,9.820 L 4.319,9.912 L 4.219,10.003 L 4.118,10.094 L 4.015,10.183 L 3.910,10.271 L 3.805,10.359 L 3.697,10.446 L 3.588,10.532 L 3.478,10.617 L 3.367,10.700 L 3.253,10.783 L 3.139,10.865 L 3.023,10.946 L 2.905,11.026 L 2.787,11.105 L 2.666,11.182 L 2.545,11.259 L 2.422,11.335 L 2.297,11.409 L 2.171,11.482 L 2.044,11.554 L 1.916,11.625 L 1.786,11.694 L 1.654,11.762 L 1.522,11.829 L 1.388,11.895 L 1.253,11.959 L 1.116,12.022 L 0.978,12.084 L 0.839,12.144 L 0.699,12.203 L 0.557,12.260 L 0.414,12.316 L 0.270,12.371 L 0.125,12.424 L -0.022,12.475 L -0.170,12.525 L -0.319,12.573 L -0.469,12.620 L -0.620,12.665 L -0.772,12.709 L -0.926,12.751 L -1.081,12.792 L -1.236,12.830 L -1.393,12.867 L -1.551,12.903 L -1.710,12.936 L -1.870,12.968 L -2.031,12.998 L -2.193,13.026 L -2.356,13.053 L -2.520,13.077 L -2.685,13.100 L -2.851,13.121 L -3.018,13.140 L -3.186,13.157 L -3.354,13.173 L -3.524,13.186 L -3.694,13.197 L -3.865,13.207 L -4.037,13.214 L -4.210,13.219 L -4.383,13.223 L -4.558,13.224 L -4.732,13.223 L -4.908,13.221 L -5.084,13.216 L -5.261,13.209 L -5.439,13.200 L -5.617,13.188 L -5.796,13.175 L -5.975,13.159 L -6.155,13.142 L -6.335,13.122 L -6.516,13.099 L -6.697,13.075 L -6.879,13.048 L -7.061,13.019 L -7.244,12.988 L -7.427,12.955 L -7.610,12.919 L -7.794,12.881 L -7.977,12.840 L -8.162,12.798 L -8.346,12.753 L -8.530,12.705 L -8.715,12.655 L -8.900,12.603 L -9.085,12.548 L -9.270,12.491 L -9.456,12.432 L -9.641,12.370 L -9.826,12.306 L -10.011,12.239 L -10.196,12.170 L -10.382,12.098 L -10.567,12.024 L -10.751,11.947 L -10.936,11.868 L -11.121,11.786 L -11.305,11.702 L -11.489,11.615 L -11.673,11.526 L -11.856,11.434 L -12.039,11.340 L -12.222,11.243 L -12.404,11.143 L -12.586,11.041 L -12.768,10.937 L -12.948,10.830 L -13.129,10.720 L -13.309,10.608 L -13.488,10.493 L -13.666,10.375 L -13.844,10.255 L -14.021,10.133 L -14.198,10.008 L -14.373,9.880 L -14.548,9.749 L -14.722,9.616 L -14.895,9.481 L -15.067,9.343 L -15.239,9.202 L -15.409,9.059 L -15.578,8.913 L -15.746,8.764 L -15.913,8.613 L -16.079,8.459 L -16.244,8.303 L -16.408,8.144 L -16.571,7.982 L -16.732,7.818 L -16.892,7.652 L -17.050,7.483 L -17.207,7.311 L -17.363,7.137 L -17.518,6.960 L -17.671,6.780 L -17.822,6.599 L -17.972,6.414 L -18.120,6.227 L -18.267,6.038 L -18.412,5.846 L -18.555,5.651 L -18.697,5.454 L -18.836,5.255 L -18.975,5.053 L -19.111,4.849 L -19.245,4.642 L -19.377,4.433 L -19.508,4.221 L -19.636,4.007 L -19.763,3.791 L -19.887,3.572 L -20.010,3.351 L -20.130,3.128 L -20.248,2.902 L -20.364,2.674 L -20.477,2.444 L -20.589,2.211 L -20.698,1.976 L -20.805,1.739 L -20.909,1.500 L -21.011,1.259 L -21.110,1.015 L -21.207,0.769 L -21.302,0.521 L -21.394,0.271 L -21.483,0.019 L -21.570,-0.235 L -21.654,-0.492 L -21.735,-0.750 L -21.814,-1.010 L -21.890,-1.273 L -21.963,-1.537 L -22.033,-1.803 L -22.100,-2.071 L -22.165,-2.341 L -22.226,-2.613 L -22.285,-2.887 L -22.340,-3.162 L -22.393,-3.439 L -22.442,-3.718 L -22.488,-3.999 L -22.532,-4.281 L -22.572,-4.565 L -22.608,-4.851 L -22.642,-5.138 L -22.672,-5.427 L -22.699,-5.717 L -22.723,-6.009 L -22.743,-6.302 L -22.760,-6.597 L -22.774,-6.893 L -22.784,-7.190 L -22.790,-7.489 L -22.793,-7.789 L -22.793,-8.090 L -22.789,-8.392 L -22.781,-8.696 L -22.770,-9.001 L -22.755,-9.306 L -22.737,-9.613 L -22.714,-9.921 L -22.688,-10.230 L -22.659,-10.540 L -22.625,-10.850 L -22.588,-11.162 L -22.546,-11.474 L -22.501,-11.787 L -22.452,-12.101 L -22.399,-12.416 L -22.343,-12.731 L -22.282,-13.047 L -22.217,-13.363 L -22.148,-13.680 L -22.075,-13.997 L -21.999,-14.315 L -21.918,-14.633 L -21.833,-14.951 L -21.744,-15.270 L -21.650,-15.589 L -21.553,-15.908 L -21.451,-16.227 L -21.346,-16.546 L -21.236,-16.866 L -21.121,-17.185 L -21.003,-17.504 L -20.880,-17.823 L -20.753,-18.142 L -20.622,-18.461 L -20.487,-18.779 L -20.347,-19.097 L -20.203,-19.415 L -20.054,-19.733 L -19.901,-20.049 L -19.744,-20.366 L -19.582,-20.681 L -19.416,-20.996 L -19.246,-21.311 L -19.071,-21.624 L -18.892,-21.937 L -18.708,-22.249 L -18.520,-22.560 L -18.327,-22.870 L -18.130,-23.179 L -17.929,-23.487 L -17.723,-23.794 L -17.513,-24.100 L -17.298,-24.404 L -17.079,-24.707 L -16.855,-25.009 L -16.627,-25.309 L -16.394,-25.608 L -16.157,-25.905 L -15.915,-26.200 L -15.669,-26.494 L -15.418,-26.786 L -15.163,-27.077 L -14.904,-27.365 L -14.640,-27.652 L -14.371,-27.937 L -14.099,-28.219 L -13.821,-28.500 L -13.539,-28.778 L -13.253,-29.054 L -12.963,-29.328 L -12.668,-29.599 L -12.368,-29.869 L -12.064,-30.135 L -11.756,-30.399 L -11.444,-30.661 L -11.127,-30.920 L -10.805,-31.176 L -10.480,-31.429 L -10.150,-31.680 L -9.816,-31.928 L -9.477,-32.172 L -9.134,-32.414 L -8.787,-32.653 L -8.436,-32.888 L -8.081,-33.120 L -7.721,-33.349 L -7.358,-33.575 L -6.990,-33.797 L -6.618,-34.016 L -6.242,-34.231 L -5.862,-34.443 L -5.477,-34.651 L -5.089,-34.855 L -4.697,-35.056 L -4.301,-35.253 L -3.901,-35.446 L -3.497,-35.634 L -3.089,-35.819 L -2.677,-36.000 L -2.262,-36.177 L -1.843,-36.349 L -1.420,-36.517 L -0.993,-36.681 L -0.563,-36.840 L -0.129,-36.995 L 0.308,-37.146 L 0.749,-37.292 L 1.194,-37.433 L 1.642,-37.569 L 2.093,-37.701 L 2.548,-37.828 L 3.006,-37.950 L 3.467,-38.067 L 3.932,-38.180 L 4.400,-38.287 L 4.871,-38.389 L 5.345,-38.486 L 5.822,-38.577 L 6.302,-38.664 L 6.785,-38.745 L 7.271,-38.820 L 7.760,-38.890 L 8.252,-38.955 L 8.746,-39.014 L 9.243,-39.068 L 9.743,-39.116 L 10.245,-39.158 L 10.750,-39.194 L 11.257,-39.225 L 11.767,-39.249 L 12.279,-39.268 L 12.793,-39.281 L 13.310,-39.287 L 13.829,-39.288 L 14.349,-39.282 L 14.872,-39.270 L 15.397,-39.252 L 15.924,-39.228 L 16.452,-39.198 L 16.982,-39.161 L 17.514,-39.117 L 18.048,-39.067 L 18.583,-39.011 L 19.120,-38.948 L 19.658,-38.878 L 20.197,-38.802 L 20.738,-38.719 L 21.280,-38.629 L 21.823,-38.533 L 22.367,-38.430 L 22.912,-38.320 L 23.458,-38.203 L 24.004,-38.079 L 24.552,-37.948 L 25.100,-37.810 L 25.649,-37.665 L 26.198,-37.513 L 26.747,-37.354 L 27.297,-37.187 L 27.847,-37.014 L 28.398,-36.833 L 28.948,-36.645 L 29.498,-36.450 L 30.049,-36.248 L 30.599,-36.038 L 31.148,-35.821 L 31.698,-35.596 L 32.247,-35.364 L 32.795,-35.125 L 33.343,-34.878 L 33.890,-34.623 L 34.437,-34.362 L 34.982,-34.092 L 35.527,-33.815 L 36.070,-33.531 L 36.612,-33.239 L 37.153,-32.939 L 37.692,-32.632 L 38.230,-32.317 L 38.767,-31.994 L 39.302,-31.664 L 39.835,-31.326 L 40.366,-30.981 L 40.895,-30.628 L 41.423,-30.267 L 41.948,-29.898 L 42.470,-29.522 L 42.991,-29.138 L 43.509,-28.746 L 44.024,-28.347 L 44.537,-27.940 L 45.047,-27.525 L 45.554,-27.103 L 46.059,-26.672 L 46.560,-26.235 L 47.058,-25.789 L 47.553,-25.336 L 48.044,-24.875 L 48.532,-24.406 L 49.016,-23.930 L 49.497,-23.446 L 49.973,-22.954 L 50.446,-22.455 L 50.915,-21.948 L 51.380,-21.434 L 51.841,-20.912 L 52.297,-20.382 L 52.749,-19.845 L 53.196,-19.300 L 53.639,-18.748 L 54.076,-18.189 L 54.509,-17.622 L 54.938,-17.047 L 55.360,-16.466 L 55.778,-15.876 L 56.191,-15.280 L 56.598,-14.676 L 56.999,-14.065 L 57.395,-13.447 L 57.786,-12.822 L 58.170,-12.189 L 58.548,-11.550 L 58.921,-10.903 L 59.287,-10.249 L 59.647,-9.589 L 60.001,-8.921 L 60.348,-8.247 L 60.688,-7.566 L 61.022,-6.877 L 61.349,-6.183 L 61.669,-5.481 L 61.983,-4.773 L 62.289,-4.059 L 62.587,-3.338 L 62.879,-2.610 L 63.163,-1.876 L 63.439,-1.136 L 63.708,-0.389 L 63.969,0.363 L 64.222,1.122 L 64.468,1.887 L 64.705,2.658 L 64.934,3.434 L 65.154,4.217 L 65.367,5.005 L 65.571,5.799 L 65.766,6.599 L 65.953,7.404 L 66.130,8.215 L 66.299,9.031 L 66.459,9.852 L 66.610,10.678 L 66.752,11.510 L 66.884,12.346 L 67.007,13.188 L 67.121,14.034 L 67.225,14.885 L 67.319,15.741 L 67.404,16.602 L 67.479,17.466 L 67.544,18.336 L 67.598,19.209 L 67.643,20.087 L 67.678,20.968 L 67.702,21.854 L 67.716,22.743 L 67.719,23.637 L 67.712,24.533 L 67.694,25.434 L 67.665,26.338 L 67.626,27.245 L 67.575,28.155 L 67.514,29.068 L 67.442,29.985 L 67.358,30.904 L 67.263,31.826 L 67.157,32.750 L 67.040,33.677 L 66.911,34.606 L 66.771,35.538 L 66.619,36.471 L 66.455,37.407 L 66.280,38.344 L 66.093,39.283 L 65.894,40.224 L 65.683,41.166 L 65.460,42.109 L 65.225,43.053 L 64.978,43.999 L 64.718,44.945 L 64.447,45.892 L 64.163,46.840 L 63.867,47.788 L 63.558,48.737 L 63.237,49.685 L 62.903,50.634 L 62.557,51.582 L 62.198,52.531 L 61.826,53.478 L 61.442,54.426 L 61.045,55.372 L 60.635,56.318 L 60.213,57.262 L 59.777,58.206 L 59.329,59.148 L 58.867,60.088 L 58.393,61.027 L 57.905,61.964 L 57.405,62.899 L 56.891,63.831 L 56.365,64.762 L 55.825,65.690 L 55.272,66.615 L 54.706,67.538 L 54.126,68.457 L 53.534,69.374 L 52.928,70.287 L 52.309,71.196 L 51.677,72.102 L 51.031,73.004 L 50.372,73.902 L 49.700,74.796 L 49.014,75.685 L 48.316,76.570 L 47.604,77.450 L 46.878,78.326 L 46.140,79.196 L 45.388,80.061 L 44.623,80.921 L 43.844,81.775 L 43.053,82.623 L 42.248,83.465 L 41.430,84.301 L 40.599,85.131 L 39.754,85.954 L 38.897,86.771 L 38.026,87.581 L 37.142,88.384 L 36.245,89.179 L 35.335,89.967 L 34.413,90.748 L 33.477,91.520 L 32.528,92.285 L 31.566,93.042 L 30.592,93.790 L 29.605,94.530 L 28.605,95.261 L 27.592,95.983 L 26.567,96.696 L 25.529,97.399 L 24.479,98.094 L 23.416,98.778 L 22.341,99.453 L 21.253,100.118 L 20.154,100.773 L 19.042,101.417 L 17.918,102.051 L 16.782,102.673 L 15.634,103.285 L 14.474,103.886 L 13.302,104.476 L 12.119,105.054 L 10.924,105.620 L 9.718,106.175 L 8.500,106.717 L 7.270,107.247 L 6.030,107.765 L 4.778,108.270 L 3.516,108.763 L 2.242,109.242 L 0.958,109.708 L -0.337,110.161 L -1.642,110.601 L -2.958,111.026 L -4.285,111.438 L -5.621,111.836 L -6.968,112.220 L -8.324,112.589 L -9.691,112.944 L -11.067,113.284 L -12.453,113.609 L -13.848,113.918 L -15.252,114.213 L -16.666,114.492 L -18.088,114.756 L -19.520,115.004 L -20.960,115.235 L -22.408,115.451 L -23.865,115.651 L -25.331,115.833 L -26.804,116.000 L -28.285,116.149 L -29.774,116.282 L -31.270,116.398 L -32.774,116.496 L -34.285,116.577 L -35.804,116.640 L -37.329,116.686 L -38.860,116.714 L -40.398,116.723 L -41.943,116.715 L -43.493,116.688 L -45.050,116.643 L -46.612,116.579 L -48.180,116.497 L -49.753,116.395 L -51.331,116.275 L -52.915,116.135 L -54.502,115.976 L -56.095,115.798 L -57.692,115.600 L -59.292,115.382 L -60.897,115.145 L -62.505,114.887 L -64.117,114.610 L -65.732,114.312 L -67.350,113.994 L -68.971,113.655 L -70.594,113.296 L -72.219,112.917 L -73.847,112.516 L -75.476,112.095 L -77.107,111.652 L -78.739,111.189 L -80.372,110.704 L -82.007,110.198 L -83.641,109.671 L -85.276,109.122 L -86.911,108.552 L -88.546,107.960 L -90.181,107.346 L -91.815,106.711 L -93.448,106.053 L -95.079,105.374 L -96.710,104.673 L -98.338,103.949 L -99.965,103.203 L -101.589,102.435 L -103.210,101.645 L -104.829,100.832 L -106.445,99.997 L -108.057,99.139 L -109.666,98.259 L -111.271,97.356 L -112.871,96.431 L -114.467,95.483 L -116.058,94.512 L -117.644,93.518 L -119.225,92.502 L -120.800,91.463 L -122.369,90.401 L -123.932,89.316 L -125.488,88.208 L -127.038,87.078 L -128.580,85.924 L -130.115,84.748 L -131.642,83.549 L -133.161,82.327 L -134.671,81.082 L -136.173,79.814 L -137.666,78.523 L -139.150,77.209 L -140.624,75.872 L -142.089,74.513 L -143.543,73.131 L -144.986,71.726 L -146.419,70.298 L -147.841,68.848 L -149.251,67.374 L -150.649,65.879 L -152.036,64.360 L -153.409,62.819 L -154.771,61.256 L -156.119,59.670 L -157.454,58.062 L -158.775,56.432 L -160.082,54.779 L -161.375,53.105 L -162.653,51.408 L -163.917,49.689 L -165.165,47.949 L -166.397,46.186 L -167.614,44.402 L -168.814,42.597 L -169.998,40.770 L -171.165,38.921 L -172.315,37.052 L -173.447,35.161 L -174.561,33.249 L -175.658,31.316 L -176.736,29.363 L -177.795,27.388 L -178.834,25.394 L -179.855,23.379 L -180.856,21.344 L -181.836,19.288 L -182.797,17.213 L -183.736,15.119 L -184.655,13.004 L -185.552,10.870 L -186.428,8.717 L -187.281,6.545 L -188.113,4.355 L -188.921,2.145 L -189.707,-0.083 L -190.470,-2.329 L -191.209,-4.593 L -191.924,-6.876 L -192.615,-9.175 L -193.282,-11.493 L -193.924,-13.827 L -194.541,-16.179 L -195.133,-18.547 L -195.698,-20.932 L -196.238,-23.333 L -196.752,-25.750 L -197.239,-28.183 L -197.700,-30.631 L -198.133,-33.095 L -198.538,-35.574 L -198.916,-38.068 L -199.266,-40.576 L -199.588,-43.098 L -199.881,-45.635 L -200.146,-48.185 L -200.381,-50.748 L -200.587,-53.325 L -200.763,-55.914 L -200.909,-58.516 L -201.025,-61.130 L -201.110,-63.756 L -201.165,-66.394 L -201.189,-69.042 L -201.181,-71.702 L -201.142,-74.372 L -201.071,-77.053 L -200.969,-79.744 L -200.833,-82.444 L -200.666,-85.153 L -200.465,-87.872 L -200.232,-90.599 L -199.965,-93.334 L -199.665,-96.077 L -199.332,-98.828 L -198.964,-101.585 L -198.562,-104.350 L -198.126,-107.120 L -197.655,-109.897 L -197.150,-112.680 L -196.610,-115.467 L -196.034,-118.260 L -195.423,-121.056 L -194.777,-123.857 L -194.094,-126.662 L -193.376,-129.469 L -192.622,-132.280 L -191.831,-135.093 L -191.004,-137.908 L -190.140,-140.724 L -189.239,-143.542 L -188.302,-146.360 L -187.327,-149.178 L -186.315,-151.996 L -185.265,-154.814 L -184.178,-157.630 L -183.054,-160.445 L -181.891,-163.258 L -180.690,-166.069 L -179.452,-168.876 L -178.175,-171.681 L -176.859,-174.481 L -175.506,-177.277 L -174.113,-180.069 L -172.682,-182.855 L -171.213,-185.635 L -169.704,-188.409 L -168.157,-191.177 L -166.570,-193.937 L -164.945,-196.690 L -163.280,-199.434 L -161.576,-202.170 L -159.833,-204.897 L -158.051,-207.614 L -156.229,-210.321 L -154.368,-213.017 L -152.468,-215.702 L -150.528,-218.375 L -148.548,-221.036 L -146.530,-223.685 L -144.471,-226.320 L -142.373,-228.941 L -140.236,-231.548 L -138.059,-234.140 L -135.843,-236.717 L -133.587,-239.278 L -131.292,-241.823 L -128.958,-244.351 L -126.584,-246.861 L -124.171,-249.353 L -121.719,-251.827 L -119.228,-254.282 L -116.697,-256.717 L -114.128,-259.132 L -111.519,-261.526 L -108.872,-263.899 L -106.186,-266.250 L -103.461,-268.579 L -100.698,-270.885 L -97.897,-273.168 L -95.057,-275.426 L -92.179,-277.660 L -89.262,-279.869 L -86.308,-282.052 L -83.317,-284.210 L -80.287,-286.340 L -77.221,-288.443 L -74.117,-290.518 L -70.976,-292.565 L -67.798,-294.583 L -64.583,-296.572 L -61.332,-298.530 L -58.045,-300.458 L -54.721,-302.354 L -51.362,-304.219 L -47.967,-306.052 L -44.537,-307.852 L -41.072,-309.618 L -37.571,-311.351 L -34.037,-313.049 L -30.467,-314.712 L -26.864,-316.339 L -23.227,-317.931 L -19.557,-319.485 L -15.853,-321.003 L -12.117,-322.483 L -8.348,-323.924 L -4.547,-325.327 L -0.713,-326.690 L 3.151,-328.014 L 7.047,-329.297 L 10.974,-330.539 L 14.932,-331.740 L 18.919,-332.898 L 22.936,-334.014 L 26.983,-335.087 L 31.059,-336.116 L 35.163,-337.102 L 39.295,-338.042 L 43.456,-338.938 L 47.643,-339.788 L 51.858,-340.591 L 56.098,-341.348 L 60.365,-342.058 L 64.658,-342.721 L 68.976,-343.335 L 73.318,-343.900 L 77.684,-344.416 L 82.075,-344.883 L 86.488,-345.300 L 90.924,-345.666 L 95.382,-345.981 L 99.862,-346.244 L 104.363,-346.456 L 108.885,-346.615 L 113.427,-346.721 L 117.988,-346.774 L 122.569,-346.773 L 127.167,-346.717 L 131.784,-346.608 L 136.418,-346.443 L 141.068,-346.222 L 145.735,-345.946 L 150.417,-345.613 L 155.114,-345.223 L 159.826,-344.776 L 164.551,-344.272 L 169.289,-343.710 L 174.040,-343.089 L 178.802,-342.410 L 183.575,-341.671 L 188.359,-340.873 L 193.153,-340.015 L 197.956,-339.097 L 202.767,-338.119 L 207.586,-337.079 L 212.413,-335.979 L 217.245,-334.816 L 222.083,-333.592 L 226.927,-332.306 L 231.774,-330.957 L 236.625,-329.545 L 241.479,-328.070 L 246.335,-326.532 L 251.193,-324.930 L 256.051,-323.264 L 260.908,-321.534 L 265.765,-319.739 L 270.620,-317.880 L 275.473,-315.956 L 280.322,-313.966 L 285.168,-311.912 L 290.008,-309.791 L 294.843,-307.605 L 299.672,-305.352 L 304.493,-303.034 L 309.306,-300.649 L 314.110,-298.197 L 318.905,-295.679 L 323.689,-293.093 L 328.462,-290.441 L 333.223,-287.722 L 337.970,-284.935 L 342.704,-282.081 L 347.423,-279.159 L 352.126,-276.169 L 356.813,-273.112 L 361.483,-269.987 L 366.134,-266.795 L 370.767,-263.534 L 375.379,-260.205 L 379.970,-256.809 L 384.540,-253.344 L 389.087,-249.811 L 393.611,-246.211 L 398.110,-242.542 L 402.584,-238.805 L 407.032,-235.000"/>
  </g>
</svg>
